<svg width="152" height="47" fill="none" xmlns="http://www.w3.org/2000/svg"><path d="M124.987 39.384v-.157c0-.534.077-1.028.232-1.484a3.52 3.52 0 0 1 .67-1.196 2.997 2.997 0 0 1 1.059-.793c.415-.191.88-.287 1.395-.287a3.3 3.3 0 0 1 1.401.287c.42.187.775.451 1.067.793.296.337.522.736.677 1.196.154.456.232.95.232 1.484v.157c0 .533-.078 1.027-.232 1.483a3.555 3.555 0 0 1-.677 1.197 3.103 3.103 0 0 1-1.06.792c-.41.187-.875.28-1.394.28-.52 0-.987-.093-1.402-.28a3.174 3.174 0 0 1-1.066-.793 3.609 3.609 0 0 1-.67-1.196 4.579 4.579 0 0 1-.232-1.483Zm1.264-.157v.157c0 .369.044.718.13 1.046.087.323.217.61.39.861.177.25.399.449.663.595.264.141.572.212.923.212.346 0 .649-.071.909-.212.264-.146.483-.344.656-.595.173-.25.303-.538.39-.861.091-.328.136-.677.136-1.046v-.157c0-.365-.045-.71-.136-1.033a2.661 2.661 0 0 0-.397-.868 1.885 1.885 0 0 0-.656-.601 1.841 1.841 0 0 0-.916-.22c-.346 0-.652.074-.916.22-.26.145-.479.346-.656.601-.173.25-.303.54-.39.868a4.01 4.01 0 0 0-.13 1.033Zm14.224-3.623v1.045h-3.74v-1.046h3.74Zm-3.555 0V43h-1.265v-7.397h1.265Zm4.676 0V43h-1.272v-7.397h1.272Zm7.285 0V43h-1.272v-7.397h1.272Zm2.481 0v1.025h-6.186v-1.026h6.186Z" fill="#000"/><path fill-rule="evenodd" clip-rule="evenodd" d="M3.109 21.968c-4.178-3.585-3.901-8.483-.623-11.01 3.586-2.35 8.28 1.145 10.676 5.34 1.293 1.837 2.528 3.277 4.824 3.65 5.87.951 13.983-2.63 18.576-7.537 1.364 3.447-12.432 13.26-18.226 13.029-5.937-.407-5.673-5.373-11.2-12.265-1.901-2.167-8.417.924-4.027 8.793Z" fill="#FBC494"/><path fill-rule="evenodd" clip-rule="evenodd" d="M3.106 21.967C.099 18.154.816 13.58 3.54 11.105c1.745-1.619 3.855-2.577 6.338-2.642 3.05-.079 6.582 2.553 7.867 8.088.738 3.456 3.176 8.097 6.467 7.677 3.383-.838 6.26-3.66 8.96-6.106-2.028 2.904-5.726 8.283-11.164 9.037-4.191.447-4.26-8.853-5.958-11.583-1.194-1.919-3.617-3.162-6.86-2.561-4.32 1.04-8.26 4.598-6.084 8.952Z" fill="#C29771"/><path fill-rule="evenodd" clip-rule="evenodd" d="M17.441 19.834c.462.11 1.058.205 1.525.228 1.137 2.11 2.331 3.749 4.28 4.146-1.26.58-2.657.997-4.031 1.196-.919-1.63-1.38-3.654-1.774-5.57ZM3.11 21.966c-3.216-3.95-2.497-9.357 1.54-11.753 2.143-.327 4.674 1.444 5.917 2.719-1.282-.006-2.25.32-3.108.646-1.338-1.793-3.827-.976-4.9.482-1.099 1.322-1.445 4.822.553 7.906Z" fill="#977150"/><path fill-rule="evenodd" clip-rule="evenodd" d="m14.56 29.538 1.248-3.223c.784.342 1.68.462 2.623.45l-1.487 3.85a1.273 1.273 0 0 1-.675.689 1.114 1.114 0 0 1-.954 0l-.093-.043c-.297-.137-.51-.374-.642-.71-.066-.187-.1-.36-.1-.525 0-.158.027-.316.08-.488Zm4.221-10.903L25.679.818C25.858.273 26.262 0 26.877 0c.61 0 1.007.273 1.186.818l11.119 28.72c.08.172.113.345.113.524 0 .158-.027.316-.093.488-.133.352-.358.589-.682.71l-.093.044a1.251 1.251 0 0 1-.49.107 1.857 1.857 0 0 1-.464-.107 1.227 1.227 0 0 1-.662-.69l-2.282-5.916.028.001-3.322-8.577h-.014l-.072-.19c-.65-1.68-1.397-3.646-2.258-5.907-.861-2.253-1.417-3.703-1.662-4.348-.087-.237-.172-.402-.252-.481-.04-.043-.08-.065-.113-.065l-.119.065c-.08.079-.166.244-.271.48-.285.66-.709 1.73-1.278 3.216-.57 1.485-1.113 2.92-1.623 4.313l-1.322 3.58-.695 1.813c-.917.13-1.865.129-2.775.037Zm22.904 11.513V12.136c0-.367.126-.682.371-.94a1.18 1.18 0 0 1 .88-.388h.074c.357 0 .655.13.913.387.252.259.378.574.378.94v1.342c0 .115.02.187.066.23.047.043.093.05.146.022a.468.468 0 0 0 .14-.122c.37-.496.807-.998 1.31-1.515.504-.524.92-.875 1.259-1.076.284-.18.655-.222 1.125-.137.477.094.802.316.98.668 0 .021.027.064.08.122.086.144.132.337.132.589 0 .1-.006.2-.02.315-.053.41-.212.71-.483.904-.179.144-.457.345-.828.617-.377.28-.636.467-.788.582-.145.115-.37.294-.675.545a6.464 6.464 0 0 0-.636.589c-.126.143-.291.337-.51.588a2.53 2.53 0 0 0-.464.696c-.092.208-.205.467-.344.775a4.093 4.093 0 0 0-.278.94c-.053.316-.1.668-.145 1.063-.047.387-.067.818-.067 1.277l-.06 9c0 .366-.119.674-.357.918-.245.244-.53.366-.874.366h-.073c-.351 0-.65-.122-.888-.366a1.244 1.244 0 0 1-.364-.919Zm8.55-8.956c0-1.974.444-3.796 1.337-5.476.895-1.672 2.113-3 3.663-3.968a9.278 9.278 0 0 1 5.053-1.464 9.37 9.37 0 0 1 3.98.882c1.264.589 2.284 1.4 3.046 2.44.053.137.152.201.298.187.152-.014.225-.15.225-.402v-1.263c0-.359.12-.675.358-.933s.53-.387.867-.387h.073c.338 0 .629.13.874.387.245.258.371.574.371.94v18.013c0 .367-.126.682-.371.94a1.165 1.165 0 0 1-.874.388h-.073c-.337 0-.629-.13-.867-.387a1.34 1.34 0 0 1-.358-.94v-1.3c0-.158-.026-.265-.08-.33-.053-.057-.105-.079-.165-.057a.256.256 0 0 0-.126.093A8.932 8.932 0 0 1 60.367 32a9.43 9.43 0 0 1-3.933-.854 10.384 10.384 0 0 1-3.232-2.275c-.9-.954-1.623-2.103-2.16-3.438a11.331 11.331 0 0 1-.807-4.24Zm2.543 0c0 2.246.742 4.177 2.232 5.799 1.49 1.615 3.27 2.425 5.357 2.425 2.053 0 3.808-.803 5.258-2.418 1.45-1.615 2.172-3.546 2.172-5.806 0-2.253-.735-4.205-2.212-5.856-1.477-1.643-3.238-2.469-5.297-2.469-2.073 0-3.841.825-5.305 2.47-1.47 1.65-2.205 3.602-2.205 5.855Zm21.556 8.956V1.284c0-.351.119-.653.364-.904.238-.25.523-.38.848-.38h.152c.337 0 .636.13.88.38.246.251.371.553.371.904v12.358c0 .115.027.194.08.237.053.043.113.05.185.029a.256.256 0 0 0 .16-.136c1.774-2.326 4.052-3.488 6.827-3.488 2.821 0 5.185 1.047 7.086 3.15 1.953 2.074 2.927 4.629 2.927 7.658 0 3.028-.974 5.598-2.927 7.714C89.32 30.938 86.956 32 84.201 32a7.98 7.98 0 0 1-3.788-.955c-1.212-.638-2.272-1.535-3.192-2.698-.106-.1-.172-.122-.212-.065a.385.385 0 0 0-.06.23v1.636c0 .367-.119.675-.364.919a1.193 1.193 0 0 1-.887.366h-.152a1.15 1.15 0 0 1-.848-.366 1.244 1.244 0 0 1-.364-.919Zm2.404-9.056c0 2.253.728 4.205 2.192 5.856 1.457 1.643 3.218 2.468 5.27 2.468 2.06 0 3.815-.825 5.279-2.468 1.463-1.65 2.192-3.603 2.192-5.856 0-2.246-.729-4.177-2.192-5.8-1.464-1.614-3.219-2.425-5.278-2.425-2.053 0-3.814.811-5.271 2.426-1.464 1.622-2.192 3.553-2.192 5.799Zm22.933 7.714c-1.954-2.16-2.927-4.729-2.927-7.714 0-2.993.973-5.54 2.927-7.657 1.94-2.104 4.318-3.151 7.125-3.151 2.795 0 5.159 1.047 7.1 3.15 1.397 1.514 2.231 3.352 2.503 5.512a2.146 2.146 0 0 1-.172 1.177c-.186.366-.517.545-1.007.545H99.982c-.271 0-.45.05-.536.158-.086.108-.113.323-.086.66.152 2.175.88 3.94 2.172 5.304 1.622 1.75 3.37 2.626 5.264 2.626.967 0 1.934-.236 2.888-.717.96-.474 1.682-1.027 2.159-1.658.245-.323.457-.574.629-.76.172-.18.357-.324.556-.431a.93.93 0 0 1 .576-.115c.199.028.404.122.623.273.351.265.543.61.576 1.033.026.416-.113.803-.418 1.155-.105.137-.264.33-.489.567-1.987 2.16-4.358 3.237-7.1 3.237-2.748 0-5.119-1.062-7.125-3.194Zm.371-11.001c.073.057.284.093.616.107h12.251c.192 0 .344-.021.444-.064.092-.043.139-.094.139-.165a.824.824 0 0 0-.06-.273 2.763 2.763 0 0 0-.152-.316c-.259-.545-.676-1.112-1.245-1.686-1.563-1.694-3.312-2.54-5.239-2.54-1.966 0-3.735.846-5.304 2.54a9.712 9.712 0 0 0-1.377 1.894c-.073.165-.113.302-.113.402 0 .043.013.072.04.101Zm19.522 12.3V1.328c0-.367.126-.682.371-.94.245-.259.536-.388.874-.388h.073c.338 0 .629.13.868.387.238.259.357.574.357.94v28.778c0 .366-.119.682-.357.94a1.14 1.14 0 0 1-.868.388h-.073c-.338 0-.629-.13-.874-.388a1.323 1.323 0 0 1-.371-.94Zm6.497 0V1.328c0-.367.126-.682.37-.94.245-.259.537-.388.875-.388h.072c.338 0 .63.13.868.387.239.259.358.574.358.94v28.778c0 .366-.119.682-.358.94a1.14 1.14 0 0 1-.868.388h-.072c-.338 0-.63-.13-.875-.388a1.326 1.326 0 0 1-.37-.94Zm5.794-8.913c0-1.974.444-3.796 1.338-5.476.894-1.672 2.112-3 3.662-3.968a9.28 9.28 0 0 1 5.053-1.464 9.37 9.37 0 0 1 3.98.882c1.265.589 2.285 1.4 3.046 2.44.053.137.152.201.298.187.153-.014.225-.15.225-.402v-1.263c0-.359.119-.675.358-.933a1.14 1.14 0 0 1 .867-.387h.073c.338 0 .629.13.874.387.245.258.371.574.371.94v18.013c0 .366-.126.682-.371.94a1.165 1.165 0 0 1-.874.388h-.073a1.14 1.14 0 0 1-.867-.387 1.339 1.339 0 0 1-.358-.94v-1.3c0-.158-.026-.265-.079-.33-.053-.057-.106-.079-.166-.057a.256.256 0 0 0-.126.093 8.844 8.844 0 0 1-3.132 2.54 8.93 8.93 0 0 1-3.967.905 9.428 9.428 0 0 1-3.933-.854 10.38 10.38 0 0 1-3.232-2.275c-.901-.955-1.623-2.103-2.159-3.438a11.332 11.332 0 0 1-.808-4.24Zm2.543 0c0 2.246.742 4.177 2.232 5.799 1.49 1.615 3.271 2.425 5.357 2.425 2.053 0 3.808-.803 5.258-2.418 1.451-1.615 2.173-3.546 2.173-5.806 0-2.253-.736-4.205-2.213-5.856-1.476-1.644-3.238-2.469-5.297-2.469-2.073 0-3.841.825-5.305 2.47-1.47 1.65-2.205 3.602-2.205 5.855Z" fill="#1F1A17"/></svg>