<?xml version="1.0" encoding="UTF-8" standalone="no"?>
<!DOCTYPE svg PUBLIC "-//W3C//DTD SVG 1.1//EN" "http://www.w3.org/Graphics/SVG/1.1/DTD/svg11.dtd">
<svg width="100%" height="100%" viewBox="0 0 4862 876" version="1.1" xmlns="http://www.w3.org/2000/svg" xmlns:xlink="http://www.w3.org/1999/xlink" xml:space="preserve" xmlns:serif="http://www.serif.com/" style="fill-rule:evenodd;clip-rule:evenodd;stroke-linejoin:round;stroke-miterlimit:2;">
    <g id="Монтажная-область1" serif:id="Монтажная область1" transform="matrix(0.760044,0,0,0.504608,1707.82,1463.87)">
        <rect x="-2247" y="-2901" width="6397" height="1736" style="fill:none;"/>
        <g transform="matrix(5.60465,0,0,8.44175,-2212.79,-2766.34)">
            <path d="M54.2,72.647C54.2,62.472 62.479,54.188 72.658,54.188C82.833,54.188 91.112,62.472 91.112,72.647C91.112,82.83 82.832,91.117 72.658,91.117C62.478,91.117 54.199,82.83 54.199,72.647M102.925,72.647C102.925,55.959 89.341,42.384 72.658,42.384C55.97,42.384 42.395,55.959 42.395,72.647C42.395,89.334 55.97,102.922 72.658,102.922C89.341,102.922 102.925,89.334 102.925,72.647M31.362,119.817C31.362,118.159 30.649,116.647 29.554,115.543C18.184,104.172 11.797,88.73 11.812,72.65C11.812,39.104 39.112,11.804 72.65,11.804C106.204,11.804 133.5,39.104 133.5,72.65C133.5,89.43 126.675,104.642 115.654,115.662L64.27,167.04L72.645,175.415L124.058,123.994C137.188,110.844 145.308,92.698 145.308,72.652C145.308,32.527 112.787,0.002 72.65,0.002C32.533,0 0,32.526 0,72.65C0,92.68 8.145,110.87 21.216,123.954C22.337,125.067 23.799,125.717 25.454,125.717C28.692,125.718 31.358,123.055 31.362,119.817M109.092,108.954C118.37,99.637 124.112,86.804 124.112,72.65C124.112,44.275 101.029,21.192 72.654,21.192C44.287,21.192 21.195,44.275 21.195,72.65C21.195,86.804 27.045,99.762 36.225,108.954C37.308,110.034 38.804,110.742 40.462,110.742C43.703,110.74 46.368,108.074 46.37,104.833C46.37,103.142 45.65,101.633 44.524,100.558C37.408,93.383 33.008,83.521 33.008,72.65C33.008,50.787 50.791,32.996 72.654,32.996C94.52,32.996 112.316,50.787 112.316,72.65C112.316,83.58 107.862,93.487 100.687,100.667L49.287,152.063L57.641,160.404L109.091,108.954L109.092,108.954Z" style="fill:rgb(218,32,49);fill-rule:nonzero;"/>
        </g>
        <g transform="matrix(5.60465,0,0,8.44175,-2212.79,-2766.34)">
            <path d="M364.433,62.322L375.183,29.609L380.741,29.609L388.312,51.759L388.404,51.759L395.884,29.609L401.441,29.609L412.146,62.322L404.246,62.322L398.5,43.255L398.404,43.255L391.584,62.322L384.991,62.322L378.171,43.255L378.079,43.255L372.329,62.322L364.433,62.322Z" style="fill:rgb(218,32,49);fill-rule:nonzero;"/>
        </g>
        <g transform="matrix(5.60465,0,0,8.44175,-2212.79,-2766.34)">
            <path d="M431.229,50.45C431.229,46.805 429.359,44.234 426.275,44.234C423.191,44.234 421.275,46.805 421.275,50.451C421.275,54.005 423.191,56.805 426.275,56.805C429.358,56.805 431.229,54.005 431.229,50.451M414.171,50.451C414.171,43.255 419.125,38.159 426.275,38.159C433.329,38.159 438.333,43.255 438.333,50.451C438.333,57.788 433.329,62.881 426.275,62.881C419.125,62.881 414.171,57.788 414.171,50.451M441.8,50.451C441.8,43.255 446.429,38.159 453.483,38.159C456.425,38.159 459.746,38.768 462.454,41.43L458.108,45.73C457.033,44.61 455.538,44.188 453.904,44.188C450.821,44.188 448.95,46.805 448.95,50.451C448.95,54.097 450.82,56.805 453.904,56.805C455.537,56.805 457.034,56.385 458.108,55.313L462.454,59.609C459.746,62.272 456.424,62.88 453.484,62.88C446.429,62.88 441.8,57.788 441.8,50.45" style="fill:rgb(218,32,49);fill-rule:nonzero;"/>
        </g>
        <g transform="matrix(5.60465,0,0,8.44175,-2212.79,-2766.34)">
            <path d="M466.579,38.722L473.399,38.722L473.399,47.647L474.429,47.647L479.992,38.722L487.796,38.722L480.225,50.405L488.729,62.322L480.412,62.322L474.15,53.347L473.4,53.347L473.4,62.322L466.579,62.322L466.579,38.722Z" style="fill:rgb(218,32,49);fill-rule:nonzero;"/>
        </g>
        <g transform="matrix(5.60465,0,0,8.44175,-2212.79,-2766.34)">
            <path d="M507.429,50.45C507.429,46.805 505.562,44.234 502.475,44.234C499.392,44.234 497.475,46.805 497.475,50.451C497.475,54.005 499.392,56.805 502.475,56.805C505.562,56.805 507.429,54.005 507.429,50.451M490.371,50.451C490.371,43.255 495.325,38.159 502.475,38.159C509.529,38.159 514.533,43.255 514.533,50.451C514.533,57.788 509.529,62.881 502.475,62.881C495.325,62.881 490.371,57.788 490.371,50.451" style="fill:rgb(218,32,49);fill-rule:nonzero;"/>
        </g>
        <g transform="matrix(5.60465,0,0,8.44175,-2212.79,-2766.34)">
            <path d="M531.508,57.368C533.425,57.368 534.079,56.388 534.079,55.313C534.079,54.188 533.425,53.068 531.509,53.068L526.367,53.068L526.367,57.368L531.508,57.368ZM530.246,48.488C531.975,48.488 533.329,47.788 533.329,46.013C533.329,44.238 531.975,43.676 530.246,43.676L526.366,43.676L526.366,48.488L530.246,48.488ZM519.546,62.322L519.546,38.722L531.742,38.722C536.371,38.722 540.387,40.451 540.387,45.126C540.387,47.276 538.704,49.143 536.883,49.656L536.883,49.751C539.637,50.501 541.367,52.463 541.367,55.359C541.367,58.818 538.8,62.322 532.771,62.322L519.546,62.322Z" style="fill:rgb(218,32,49);fill-rule:nonzero;"/>
        </g>
        <g transform="matrix(5.60465,0,0,8.44175,-2212.79,-2766.34)">
            <path d="M544.792,50.45C544.792,43.255 549.421,38.16 556.475,38.16C559.417,38.16 562.737,38.768 565.445,41.43L561.1,45.73C560.025,44.61 558.533,44.188 556.896,44.188C553.812,44.188 551.942,46.805 551.942,50.451C551.942,54.097 553.812,56.805 556.896,56.805C558.533,56.805 560.025,56.385 561.1,55.313L565.446,59.609C562.737,62.272 559.416,62.88 556.475,62.88C549.421,62.88 544.792,57.788 544.792,50.45" style="fill:rgb(218,32,49);fill-rule:nonzero;"/>
        </g>
        <g transform="matrix(5.60465,0,0,8.44175,-2212.79,-2766.34)">
            <path d="M569.567,38.722L576.387,38.722L576.387,47.647L577.421,47.647L582.979,38.722L590.783,38.722L583.213,50.405L591.717,62.322L583.4,62.322L577.137,53.347L576.387,53.347L576.387,62.322L569.567,62.322L569.567,38.722ZM594.95,38.722L601.77,38.722L601.77,52.038L601.867,52.038L610.883,38.722L616.771,38.722L616.771,62.322L609.95,62.322L609.95,49L609.858,49L600.883,62.32L594.95,62.32L594.95,38.72L594.95,38.722Z" style="fill:rgb(218,32,49);fill-rule:nonzero;"/>
        </g>
        <g transform="matrix(5.60465,0,0,8.44175,-2212.79,-2766.34)">
            <path d="M626.18,31.572L629.733,28.068C630.383,29.326 631.692,31.055 633.892,31.055C636.692,31.055 637.675,29.325 638.375,28.068L641.742,31.572C640.85,33.392 638.237,36.242 634.029,36.242C629.871,36.242 627.254,33.392 626.179,31.572M623.329,38.722L630.15,38.722L630.15,52.038L630.246,52.038L639.262,38.722L645.15,38.722L645.15,62.318L638.33,62.318L638.33,49L638.237,49L629.262,62.317L623.329,62.317L623.329,38.722Z" style="fill:rgb(218,32,49);fill-rule:nonzero;"/>
        </g>
        <g transform="matrix(5.60465,0,0,8.44175,-2212.79,-2766.34)">
            <path d="M370.97,88.722L375.596,88.722L381.396,103.301L381.483,103.301L387.329,88.721L391.812,88.721L397.842,112.321L391.021,112.321L388.45,100.543L388.358,100.543L383.496,112.322L379.054,112.322L374.429,100.497L374.337,100.497L371.675,112.322L365.083,112.322L370.971,88.722L370.97,88.722Z" style="fill:rgb(218,32,49);fill-rule:nonzero;"/>
        </g>
        <g transform="matrix(5.60465,0,0,8.44175,-2212.79,-2766.34)">
            <path d="M416.033,97.834C415.753,95.218 414.35,93.584 411.733,93.584C409.35,93.584 407.858,95.405 407.437,97.834L416.033,97.834ZM400.146,100.497C400.146,93.301 404.958,88.159 411.779,88.159C418.229,88.159 423.183,92.089 423.183,101.105L423.183,102.738L407.53,102.738C408.047,105.776 410.71,106.759 412.905,106.759C415.055,106.759 416.972,105.73 417.809,104.518L422.201,108.909C419.351,111.663 416.08,112.88 412.159,112.88C405.989,112.88 400.147,108.488 400.147,100.497M432.264,94.655L425.347,94.655L425.347,88.722L446.559,88.722L444.367,94.655L439.084,94.655L439.084,112.318L432.264,112.318L432.264,94.655Z" style="fill:rgb(218,32,49);fill-rule:nonzero;"/>
        </g>
        <g transform="matrix(5.60465,0,0,8.44175,-2212.79,-2766.34)">
            <path d="M461.804,106.713C464.937,106.713 467.129,104.051 467.129,100.405C467.129,96.947 464.937,94.235 461.804,94.235C458.674,94.235 456.434,96.947 456.434,100.405C456.434,104.051 458.674,106.713 461.804,106.713M456.708,120.963L449.888,120.963L449.888,88.722L456.708,88.722L456.708,91.059L456.804,91.059C457.834,89.797 459.841,88.159 463.441,88.159C469.608,88.159 474.233,93.255 474.233,100.451C474.233,107.693 469.608,112.881 463.441,112.881C459.841,112.881 457.833,111.247 456.804,109.984L456.708,109.984L456.708,120.964L456.708,120.963Z" style="fill:rgb(218,32,49);fill-rule:nonzero;"/>
        </g>
        <g transform="matrix(5.60465,0,0,8.44175,-2212.79,-2766.34)">
            <path d="M494.762,100.451C494.762,96.805 492.892,94.234 489.808,94.234C486.725,94.234 484.808,96.805 484.808,100.451C484.808,104.005 486.725,106.805 489.808,106.805C492.892,106.805 494.762,104.005 494.762,100.451M477.704,100.451C477.704,93.255 482.658,88.159 489.808,88.159C496.862,88.159 501.867,93.255 501.867,100.451C501.867,107.788 496.862,112.881 489.808,112.881C482.658,112.881 477.704,107.788 477.704,100.451" style="fill:rgb(218,32,49);fill-rule:nonzero;"/>
        </g>
        <g transform="matrix(5.60465,0,0,8.44175,-2212.79,-2766.34)">
            <path d="M506.875,88.722L527.437,88.722L527.437,112.322L520.612,112.322L520.612,94.655L513.696,94.655L513.696,112.322L506.875,112.322L506.875,88.722Z" style="fill:rgb(218,32,49);fill-rule:nonzero;"/>
        </g>
        <g transform="matrix(5.60465,0,0,8.44175,-2212.79,-2766.34)">
            <path d="M549.412,100.451C549.412,96.805 547.546,94.234 544.458,94.234C541.375,94.234 539.458,96.805 539.458,100.451C539.458,104.005 541.375,106.805 544.458,106.805C547.546,106.805 549.412,104.005 549.412,100.451M532.354,100.451C532.354,93.255 537.308,88.159 544.458,88.159C551.517,88.159 556.517,93.255 556.517,100.451C556.517,107.788 551.517,112.881 544.458,112.881C537.308,112.881 532.354,107.788 532.354,100.451" style="fill:rgb(218,32,49);fill-rule:nonzero;"/>
        </g>
        <g transform="matrix(5.60465,0,0,8.44175,-2212.79,-2766.34)">
            <path d="M559.283,112.322L559.283,107.226C559.517,107.322 560.033,107.459 560.454,107.459C562.229,107.459 562.65,106.293 563.021,102.134C563.679,93.63 563.679,88.722 563.679,88.722L582.649,88.722L582.649,112.322L575.921,112.322L575.921,94.659L569.658,94.659C569.567,96.434 569.612,98.63 569.379,101.622C568.867,108.909 567.742,112.788 561.904,112.788C560.546,112.788 559.284,112.322 559.284,112.322" style="fill:rgb(218,32,49);fill-rule:nonzero;"/>
        </g>
        <g transform="matrix(5.60465,0,0,8.44175,-2212.79,-2766.34)">
            <path d="M589.246,88.722L596.066,88.722L596.066,102.038L596.162,102.038L605.179,88.722L611.067,88.722L611.067,112.322L604.246,112.322L604.246,99L604.154,99L595.179,112.32L589.246,112.32L589.246,88.72L589.246,88.722Z" style="fill:rgb(218,32,49);fill-rule:nonzero;"/>
        </g>
        <g transform="matrix(5.60465,0,0,8.44175,-2212.79,-2766.34)">
            <path d="M622.159,94.655L615.242,94.655L615.242,88.722L636.454,88.722L634.262,94.655L628.979,94.655L628.979,112.318L622.159,112.318L622.159,94.655ZM653.333,97.835C653.054,95.218 651.65,93.585 649.033,93.585C646.654,93.585 645.158,95.405 644.737,97.835L653.333,97.835ZM637.446,100.497C637.446,93.301 642.262,88.159 649.083,88.159C655.529,88.159 660.483,92.089 660.483,101.105L660.483,102.738L644.83,102.738C645.347,105.776 648.01,106.759 650.205,106.759C652.355,106.759 654.272,105.73 655.113,104.518L659.505,108.909C656.655,111.663 653.38,112.88 649.455,112.88C643.288,112.88 637.447,108.488 637.447,100.497" style="fill:rgb(218,32,49);fill-rule:nonzero;"/>
        </g>
        <g transform="matrix(5.60465,0,0,8.44175,-2212.79,-2766.34)">
            <path d="M665.404,88.722L672.225,88.722L672.225,97.413L679.937,97.413L679.937,88.722L686.758,88.722L686.758,112.322L679.938,112.322L679.938,103.392L672.225,103.392L672.225,112.322L665.405,112.322L665.405,88.722L665.404,88.722Z" style="fill:rgb(218,32,49);fill-rule:nonzero;"/>
        </g>
        <g transform="matrix(5.60465,0,0,8.44175,-2212.79,-2766.34)">
            <path d="M243.476,85.538L239.358,85.538L243.366,74.068L254.866,92.997L266.366,74.067L270.379,85.538L266.258,85.538L266.258,92.476L293.758,92.476L293.758,85.538L288.416,85.538L270.204,39.518L254.866,66.4L239.53,39.518L221.317,85.538L215.984,85.538L215.984,92.476L243.476,92.476L243.476,85.538Z" style="fill:rgb(218,32,49);fill-rule:nonzero;"/>
        </g>
        <g transform="matrix(5.60465,0,0,8.44175,-2212.79,-2766.34)">
            <path d="M327.52,72.655C327.52,32.53 294.996,0.005 254.87,0.005C214.75,0.005 182.22,32.53 182.22,72.655C182.199,91.887 189.838,110.357 203.437,123.955C204.554,125.09 206.083,125.727 207.675,125.722C210.933,125.722 213.575,123.072 213.575,119.822C213.575,118.168 212.87,116.655 211.77,115.547C200.402,104.176 194.015,88.734 194.029,72.655C194.029,39.113 221.32,11.813 254.87,11.813C288.42,11.813 315.716,39.113 315.716,72.655C315.716,89.435 308.887,104.647 297.866,115.659L246.487,167.039L254.858,175.414L306.275,124C319.404,110.85 327.521,92.704 327.521,72.654" style="fill:rgb(218,32,49);fill-rule:nonzero;"/>
        </g>
        <g transform="matrix(41.4507,0,0,62.4333,2818,-2053.89)">
            <path d="M0,0.98C-2.678,0.98 -4.442,-1.045 -4.442,-3.429C-4.442,-5.749 -2.646,-7.839 0,-7.839C2.678,-7.839 4.475,-5.749 4.475,-3.429C4.475,-1.045 2.711,0.98 0,0.98M0.098,-11.334C-5.063,-11.334 -8.427,-7.676 -8.427,-3.299C-8.427,1.47 -4.605,4.344 -0.914,4.344C0.359,4.344 1.633,4.05 2.711,3.397L2.777,3.43L-3.207,10.666L-4.689,12.314L0.066,12.314L3.397,8.068C6.99,3.56 8.525,0.392 8.525,-2.972C8.525,-7.447 5.291,-11.334 0.098,-11.334" style="fill:rgb(218,32,49);fill-rule:nonzero;"/>
        </g>
        <g transform="matrix(41.4507,0,0,62.4333,3248.06,-1297.22)">
            <path d="M0,-7.049C-0.002,-7.015 -0.18,-3.673 -0.401,-2.421L-0.402,-2.418C-0.544,-1.562 -0.685,-1.387 -0.853,-1.387C-1.009,-1.387 -1.127,-1.428 -1.122,-1.423L-1.562,-1.648L-1.562,0.073L-1.394,0.157C-1.318,0.195 -0.958,0.288 -0.636,0.288C0.74,0.288 1.122,-0.971 1.315,-2.202C1.476,-3.212 1.586,-4.788 1.645,-5.682L3.291,-5.682L3.291,0.189L5.084,0.189L5.084,-7.337L0.015,-7.337L0,-7.049Z" style="fill:rgb(218,32,49);fill-rule:nonzero;"/>
        </g>
        <g transform="matrix(41.4507,0,0,62.4333,3685.9,-1388.73)">
            <path d="M0,-4.216L0.609,-5.871L-4.736,-5.871L-4.736,1.655L0.566,1.655L0.566,0L-2.942,0L-2.942,-1.379L-0.827,-1.379L-0.827,-3.034L-2.942,-3.034L-2.942,-4.216L0,-4.216Z" style="fill:rgb(218,32,49);fill-rule:nonzero;"/>
        </g>
        <g transform="matrix(41.4507,0,0,62.4333,3723.53,-1285.4)">
            <path d="M0,-7.526L0,-5.871L2.343,-5.871L2.343,0L4.136,0L4.136,-5.871L6.189,-5.871L6.72,-7.526L0,-7.526Z" style="fill:rgb(218,32,49);fill-rule:nonzero;"/>
        </g>
        <g transform="matrix(41.4507,0,0,62.4333,3638.71,-2153.55)">
            <path d="M0,5.372L2.817,5.372L2.817,4.661L2.27,4.661L0.404,-0.053L-1.167,2.7L-2.738,-0.053L-4.603,4.661L-5.15,4.661L-5.15,5.372L-2.333,5.372L-2.333,4.661L-2.755,4.661L-2.345,3.486L-1.167,5.425L0.011,3.486L0.422,4.661L0,4.661L0,5.372Z" style="fill:rgb(218,32,49);fill-rule:nonzero;"/>
        </g>
        <g transform="matrix(41.4507,0,0,62.4333,3400.33,-2761.5)">
            <path d="M0,15.163C-0.179,14.182 -0.27,13.081 -0.27,11.873C-0.27,6.756 1.337,3.509 4.584,3.509C7.831,3.509 9.439,6.756 9.439,11.873C9.439,13.081 9.348,14.182 9.169,15.163L13.192,15.163C13.355,14.142 13.44,13.043 13.44,11.873C13.44,4.559 10.16,0 4.584,0C-0.992,0 -4.272,4.559 -4.272,11.873C-4.272,13.043 -4.187,14.142 -4.023,15.163L0,15.163Z" style="fill:rgb(218,32,49);fill-rule:nonzero;"/>
        </g>
    </g>
</svg>
