<svg version="1.1"
	xmlns="http://www.w3.org/2000/svg" width="1152" height="768" viewBox="0 0 1152 768">
	<g id="icomoon-ignore">
	</g>
	<path fill="#dc1f26" d="M-60.234-76.8h1272.469v921.6h-1272.469v-921.6z"></path>
	<path fill="#c7323e" d="M81.031 768h1071.352v-768h-1152.768v768h81.416z"></path>
	<path fill="#4ba556" d="M81.031 768h1071.352v-233.365h-1152.768v233.365h81.416z"></path>
	<path fill="#fff" d="M-0.384 0h206.123v768h-206.123v-768z"></path>
	<path fill="#c7323e" d="M35.459 0h26.88v12.587h8.97v12.587h8.962v12.595h8.963v12.587h8.962v12.618h-8.963v12.565h-8.963v12.596h-8.962v12.587h-8.963v12.587h-8.963v12.587h-8.955v-12.587h-8.97v-12.587h-8.955v-12.587h-8.962v-12.596h-8.962v-12.565h-8.962v-12.618h8.962v-12.587h8.962v-12.596h8.962v-12.587h8.955zM44.428 25.175h8.955v12.596h8.963v12.587h8.963v12.618h-8.963v12.565h-8.963v12.596h-8.955v-12.596h-8.97v-12.565h-8.955v-12.618h8.955v-12.587h8.97zM44.428 50.358h8.963v12.618h-8.963zM-0.384 12.587h8.962v12.595h-8.962zM-0.384 88.135h8.962v12.587h-8.962zM98.197 0h5.376v25.183h-5.376zM98.197 88.135h5.376v25.175h-5.376zM17.557 113.311h8.947v12.587h8.955v12.596h8.97v12.587h-8.97v12.587h-8.955v12.595h-8.962v-12.595h-8.963v-12.587h-8.962v-12.587h8.962v-12.596h8.963zM17.557 138.493h8.947v12.587h-8.962zM71.317 113.311h8.963v12.587h8.962v12.596h8.963v12.587h-8.97v12.587h-8.963v12.595h-8.962v-12.595h-8.963v-12.587h-8.963v-12.587h8.963v-12.596h8.963zM71.317 138.493h8.963v12.587h-8.97zM-0.384 188.851h8.962v12.596h-8.962zM98.197 176.263h5.376v25.183h-5.376z"></path>
	<path fill="#c7323e" d="M-0.384 226.621h8.962v-12.587h8.962v-12.587h8.962v-12.595h8.955v-12.587h8.97v-12.595h8.955v12.595h8.963v12.587h8.963v12.595h8.962v12.587h8.963v12.587h8.962v12.587h5.376v50.365h-5.376v12.587h-8.963v12.596h-8.963v12.587h-8.962v12.587h-8.963v12.58h-8.963v32.732h-17.925v-7.542h-8.955v-12.587h-8.962v-12.603h-8.962v-12.595h-8.962v-37.755h8.962v12.595h8.962v12.587h8.962v12.587h8.955v-12.587h8.97v-12.587h8.955v-12.595h8.963v-12.587h8.963v-12.587h8.962v-12.596h-8.962v-12.587h-8.963v-12.595h-26.88v12.595h17.917v12.587h-8.955v12.596h-8.97v12.587h-8.955v-12.587h-8.962v-12.596h-8.962v-12.587h-8.962zM-0.384 276.987h8.962v12.587h-8.962zM98.197 314.757h5.376v12.587h-5.376zM80.271 339.932h8.963v12.58h8.962v12.587h5.376v20.145h-5.376v-7.542h-8.963v-12.587h-8.963zM62.346 377.702h8.963v7.557h-8.963z"></path>
	<path fill="#c7323e" d="M169.897 0h-26.88v12.587h-8.97v12.587h-8.962v12.595h-8.962v12.587h-8.962v12.618h8.962v12.565h8.962v12.596h8.962v12.587h8.963v12.587h8.963v12.587h8.962v-12.587h8.962v-12.587h8.963v-12.587h8.955v-12.596h8.97v-12.565h8.955v-12.618h-8.955v-12.587h-8.97v-12.596h-8.955v-12.587h-8.962zM160.934 25.175h-8.963v12.596h-8.963v12.587h-8.962v12.618h8.962v12.565h8.963v12.596h8.963v-12.596h8.962v-12.565h8.962v-12.618h-8.962v-12.587h-8.962zM160.934 50.358h-8.963v12.618h8.963zM205.739 12.587h-8.963v12.595h8.963zM205.739 88.135h-8.963v12.587h8.963zM107.159 0h-5.376v25.183h5.376zM107.159 88.135h-5.376v25.175h5.376zM187.799 113.311h-8.939v12.587h-8.962v12.596h-8.963v12.587h8.963v12.587h8.962v12.595h8.955v-12.595h8.97v-12.587h8.955v-12.587h-8.955v-12.596h-8.97zM187.799 138.493h-8.948v12.587h8.963zM134.039 113.311h-8.955v12.587h-8.962v12.596h-8.962v12.587h8.962v12.587h8.962v12.595h8.962v-12.595h8.963v-12.587h8.963v-12.587h-8.963v-12.596h-8.963zM134.039 138.493h-8.955v12.587h8.962zM205.732 188.851h-8.955v12.596h8.963zM107.159 176.263h-5.376v25.183h5.376z"></path>
	<path fill="#c7323e" d="M205.739 226.621h-8.955v-12.587h-8.97v-12.587h-8.955v-12.595h-8.962v-12.587h-8.963v-12.595h-8.962v12.595h-8.963v12.587h-8.962v12.595h-8.963v12.587h-8.962v12.587h-8.963v12.587h-5.376v50.365h5.376v12.587h8.963v12.596h8.962v12.587h8.963v12.587h8.962v12.58h8.963v32.732h17.925v-7.542h8.962v-12.587h8.955v-12.603h8.97v-12.595h8.955v-37.755h-8.955v12.595h-8.97v12.587h-8.955v12.587h-8.962v-12.587h-8.963v-12.587h-8.962v-12.595h-8.963v-12.587h-8.962v-12.587h-8.963v-12.596h8.963v-12.587h8.962v-12.595h26.88v12.595h-17.918v12.587h8.963v12.596h8.963v12.587h8.962v-12.587h8.955v-12.596h8.97v-12.587h8.955zM205.739 276.987h-8.963v12.587h8.963zM107.159 314.757h-5.376v12.587h5.376zM125.084 339.932h-8.962v12.58h-8.962v12.587h-5.376v20.145h5.376v-7.542h8.962v-12.587h8.962zM143.009 377.702h-8.963v7.557h8.963z"></path>
	<path fill="#fcfdff" d="M53.752 87.706h-8.962v-12.587h-8.955v-12.595h-8.97v-12.587h8.97v-12.587h8.955v-12.595h8.962v12.595h8.97v12.587h8.955v12.587h-8.955v12.595h-8.97v12.587z"></path>
	<path fill="#fcfdff" d="M161.334 87.706h-8.963v-12.587h-8.962v-12.595h-8.963v-12.587h8.963v-12.587h8.962v-12.595h8.963v12.595h8.97v12.587h8.955v12.587h-8.955v12.595h-8.97v12.587z"></path>
	<path fill="#c7323e" d="M44.79 49.935h8.962v12.587h-8.962v-12.587z"></path>
	<path fill="#c7323e" d="M151.972 50.358h8.963v12.587h-8.963v-12.587z"></path>
	<path fill="#fff" d="M179.259 139.138h8.962v12.587h-8.962v-12.587z"></path>
	<path fill="#fff" d="M124.815 138.255h8.962v12.587h-8.962v-12.587z"></path>
	<path fill="#fff" d="M71.677 138.255h8.963v12.587h-8.963v-12.587z"></path>
	<path fill="#fff" d="M17.902 138.255h8.963v12.587h-8.962v-12.587z"></path>
	<path fill="#c7323e" d="M35.459 768h26.88v-12.587h8.97v-12.595h8.962v-12.587h8.963v-12.587h8.962v-12.618h-8.963v-12.565h-8.963v-12.587h-8.962v-12.596h-8.963v-12.587h-8.963v-12.587h-8.955v12.587h-8.97v12.587h-8.955v12.596h-8.962v12.587h-8.962v12.565h-8.962v12.595h8.962v12.587h8.962v12.587h8.962v12.596h8.955zM44.428 742.817h8.955v-12.587h8.963v-12.587h8.963v-12.618h-8.963v-12.565h-8.963v-12.587h-8.955v12.587h-8.97v12.565h-8.955v12.595h8.955v12.587h8.97zM44.428 717.642h8.963v-12.618h-8.963zM-0.384 755.413h8.962v-12.595h-8.962zM-0.384 679.872h8.962v-12.596h-8.962zM98.197 768h5.376v-25.183h-5.376zM98.197 679.872h5.376v-25.183h-5.376zM17.557 654.689h8.947v-12.587h8.955v-12.596h8.97v-12.587h-8.97v-12.587h-8.955v-12.596h-8.962v12.596h-8.963v12.587h-8.962v12.587h8.962v12.596h8.963zM17.557 629.506h8.947v-12.587h-8.962zM71.317 654.689h8.963v-12.587h8.962v-12.596h8.963v-12.587h-8.97v-12.587h-8.963v-12.596h-8.962v12.596h-8.963v12.587h-8.963v12.587h8.963v12.596h8.963zM71.317 629.506h8.963v-12.587h-8.97zM-0.384 579.149h8.962v-12.587h-8.962zM98.197 591.736h5.376v-25.183h-5.376z"></path>
	<path fill="#c7323e" d="M-0.384 541.379h8.962v12.587h8.962v12.596h8.962v12.587h8.955v12.587h8.97v12.595h8.955v-12.595h8.963v-12.587h8.963v-12.587h8.962v-12.596h8.963v-12.587h8.962v-12.596h5.376v-50.319h-5.376v-12.626h-8.963v-12.595h-8.963v-12.587h-8.962v-12.587h-8.963v-12.58h-8.963v-32.747h-17.925v7.557h-8.955v12.587h-8.962v12.603h-8.962v12.587h-8.962v37.77h8.962v-12.596h8.962v-12.595h8.962v-12.587h8.955v12.587h8.97v12.587h8.955v12.596h8.963v12.626h8.963v12.587h8.962v12.595h-8.962v12.587h-8.963v12.587h-26.88v-12.626h17.917v-12.587h-8.955v-12.595h-8.97v-12.549h-8.955v12.587h-8.962v12.596h-8.962v12.587h-8.962zM-0.384 491.013h8.962v-12.549h-8.962zM98.197 453.243h5.376v-12.587h-5.376zM80.271 428.068h8.963v-12.58h8.962v-12.596h5.376v-20.152h-5.376v7.557h-8.963v12.587h-8.963zM62.346 390.298h8.963v-7.557h-8.963z"></path>
	<path fill="#c7323e" d="M169.897 768h-26.88v-12.587h-8.97v-12.595h-8.962v-12.587h-8.962v-12.587h-8.962v-12.618h8.962v-12.565h8.962v-12.587h8.962v-12.596h8.963v-12.587h8.963v-12.587h8.962v12.587h8.962v12.587h8.963v12.596h8.955v12.587h8.97v12.565h8.955v12.595h-8.955v12.587h-8.97v12.587h-8.955v12.596h-8.962zM160.934 742.817h-8.963v-12.587h-8.963v-12.587h-8.962v-12.618h8.962v-12.565h8.963v-12.587h8.963v12.587h8.962v12.565h8.962v12.595h-8.962v12.587h-8.962zM160.934 717.642h-8.963v-12.618h8.963zM205.739 755.413h-8.963v-12.595h8.963zM205.739 679.872h-8.963v-12.596h8.963zM107.159 768h-5.376v-25.183h5.376zM107.159 679.872h-5.376v-25.183h5.376zM187.799 654.689h-8.939v-12.587h-8.962v-12.596h-8.963v-12.587h8.963v-12.587h8.962v-12.596h8.955v12.596h8.97v12.587h8.955v12.587h-8.955v12.596h-8.97zM187.799 629.506h-8.948v-12.587h8.963zM134.039 654.689h-8.955v-12.587h-8.962v-12.596h-8.962v-12.587h8.962v-12.587h8.962v-12.596h8.962v12.596h8.963v12.587h8.963v12.587h-8.963v12.596h-8.963zM134.039 629.506h-8.955v-12.587h8.962zM205.732 579.149h-8.955v-12.587h8.963zM107.159 591.736h-5.376v-25.183h5.376z"></path>
	<path fill="#c7323e" d="M205.739 541.379h-8.955v12.587h-8.97v12.596h-8.955v12.587h-8.962v12.587h-8.963v12.595h-8.962v-12.595h-8.963v-12.587h-8.962v-12.587h-8.963v-12.596h-8.962v-12.587h-8.963v-12.596h-5.376v-50.319h5.376v-12.626h8.963v-12.595h8.962v-12.587h8.963v-12.587h8.962v-12.58h8.963v-32.747h17.925v7.557h8.962v12.587h8.955v12.603h8.97v12.587h8.955v37.77h-8.955v-12.596h-8.97v-12.595h-8.955v-12.587h-8.962v12.587h-8.963v12.587h-8.962v12.596h-8.963v12.626h-8.962v12.587h-8.963v12.595h8.963v12.587h8.962v12.587h26.88v-12.626h-17.918v-12.587h8.963v-12.595h8.963v-12.549h8.962v12.587h8.955v12.596h8.97v12.587h8.955zM205.739 491.013h-8.963v-12.549h8.963zM107.159 453.243h-5.376v-12.587h5.376zM125.084 428.068h-8.962v-12.58h-8.962v-12.596h-5.376v-20.152h5.376v7.557h8.962v12.587h8.962zM143.009 390.298h-8.963v-7.557h8.963z"></path>
	<path fill="#fcfdff" d="M151.603 680.294h8.963v12.596h8.962v12.587h8.963v12.587h-8.963v12.596h-8.962v12.587h-8.963v-12.587h-8.962v-12.596h-8.963v-12.587h8.963v-12.587h8.962v-12.596z"></path>
	<path fill="#fcfdff" d="M44.022 680.294h8.962v12.596h8.963v12.587h8.963v12.587h-8.963v12.596h-8.963v12.587h-8.962v-12.587h-8.962v-12.596h-8.963v-12.587h8.963v-12.587h8.962v-12.596z"></path>
	<path fill="#c7323e" d="M151.595 705.477h8.962v12.587h-8.962v-12.587z"></path>
	<path fill="#c7323e" d="M44.428 705.047h8.963v12.587h-8.963v-12.587z"></path>
	<path fill="#fff" d="M17.134 616.266h8.963v12.587h-8.962v-12.587z"></path>
	<path fill="#fff" d="M71.578 617.157h8.963v12.587h-8.963v-12.587z"></path>
	<path fill="#fff" d="M124.715 617.157h8.963v12.587h-8.963v-12.587z"></path>
	<path fill="#fff" d="M178.491 617.157h8.963v12.587h-8.963v-12.587z"></path>
</svg>
