<?xml version="1.0" encoding="utf-8"?>
<!-- Generator: Adobe Illustrator 27.9.0, SVG Export Plug-In . SVG Version: 6.00 Build 0)  -->
<svg version="1.1" id="Слой_1"
	xmlns="http://www.w3.org/2000/svg"
	xmlns:xlink="http://www.w3.org/1999/xlink" x="0px" y="0px" viewBox="0 0 333 270" style="enable-background:new 0 0 333 270;" xml:space="preserve">
	<style type="text/css">
	.st0{fill:#424530;}
	</style>
	<path class="st0" d="M0,13.3l0,173.4C0,194,6,200,13.3,200h56.4c7.4,0,13.3,6,13.3,13.3v43.4c0,7.4,6,13.3,13.3,13.3h223.4 c7.4,0,13.3-6,13.3-13.3V83.3c0-7.4-6-13.3-13.3-13.3h-56.4C256,70,250,64,250,56.7V13.3C250,6,244,0,236.7,0L13.3,0C6,0,0,6,0,13.3z"/>
</svg>
