<svg xmlns="http://www.w3.org/2000/svg" width="1152" height="768"><path fill="#dc1f26" d="M-60.234-76.8h1272.469v921.6H-60.234V-76.8z"/><path fill="#c7323e" d="M81.031 768h1071.352V0H-.385v768h81.416z"/><path fill="#4ba556" d="M81.031 768h1071.352V534.635H-.385V768h81.416z"/><path fill="#fff" d="M-.384 0h206.123v768H-.384V0z"/><path fill="#c7323e" d="M35.459 0h26.88v12.587h8.97v12.587h8.962v12.595h8.963v12.587h8.962v12.618h-8.963v12.565H80.27v12.596h-8.962v12.587h-8.963v12.587h-8.963v12.587h-8.955v-12.587h-8.97v-12.587h-8.955V88.135H17.54V75.539H8.578V62.974H-.384V50.356h8.962V37.769h8.962V25.173h8.962V12.586h8.955zm8.969 25.175h8.955v12.596h8.963v12.587h8.963v12.618h-8.963v12.565h-8.963v12.596h-8.955V75.541h-8.97V62.976h-8.955V50.358h8.955V37.771h8.97zm0 25.183h8.963v12.618h-8.963zM-.384 12.587h8.962v12.595H-.384zm0 75.548h8.962v12.587H-.384zM98.197 0h5.376v25.183h-5.376zm0 88.135h5.376v25.175h-5.376zm-80.64 25.176h8.947v12.587h8.955v12.596h8.97v12.587h-8.97v12.587h-8.955v12.595h-8.962v-12.595H8.579v-12.587H-.383v-12.587h8.962v-12.596h8.963zm0 25.182h8.947v12.587h-8.962zm53.76-25.182h8.963v12.587h8.962v12.596h8.963v12.587h-8.97v12.587h-8.963v12.595H71.31v-12.595h-8.963v-12.587h-8.963v-12.587h8.963v-12.596h8.963zm0 25.182h8.963v12.587h-8.97zM-.384 188.851h8.962v12.596H-.384zm98.581-12.588h5.376v25.183h-5.376zM-.384 226.621h8.962v-12.587h8.962v-12.587h8.962v-12.595h8.955v-12.587h8.97V163.67h8.955v12.595h8.963v12.587h8.963v12.595h8.962v12.587h8.963v12.587h8.962v12.587h5.376v50.365h-5.376v12.587h-8.963v12.596h-8.963v12.587h-8.962v12.587h-8.963v12.58h-8.963v32.732H35.456V377.7h-8.955v-12.587h-8.962V352.51H8.577v-12.595H-.385V302.16h8.962v12.595h8.962v12.587h8.962v12.587h8.955v-12.587h8.97v-12.587h8.955V302.16h8.963v-12.587h8.963v-12.587h8.962V264.39h-8.962v-12.587h-8.963v-12.595h-26.88v12.595h17.917v12.587h-8.955v12.596h-8.97v12.587h-8.955v-12.587h-8.962V264.39H8.577v-12.587H-.385zm0 50.366h8.962v12.587H-.384zm98.581 37.77h5.376v12.587h-5.376zm-17.926 25.175h8.963v12.58h8.962v12.587h5.376v20.145h-5.376v-7.542h-8.963v-12.587H80.27zm-17.925 37.77h8.963v7.557h-8.963z"/><path fill="#c7323e" d="M169.897 0h-26.88v12.587h-8.97v12.587h-8.962v12.595h-8.962v12.587h-8.962v12.618h8.962v12.565h8.962v12.596h8.962v12.587h8.963v12.587h8.963v12.587h8.962v-12.587h8.962v-12.587h8.963V88.135h8.955V75.539h8.97V62.974h8.955V50.356h-8.955V37.769h-8.97V25.173h-8.955V12.586h-8.962zm-8.963 25.175h-8.963v12.596h-8.963v12.587h-8.962v12.618h8.962v12.565h8.963v12.596h8.963V75.541h8.962V62.976h8.962V50.358h-8.962V37.771h-8.962zm0 25.183h-8.963v12.618h8.963zm44.805-37.771h-8.963v12.595h8.963zm0 75.548h-8.963v12.587h8.963zM107.159 0h-5.376v25.183h5.376zm0 88.135h-5.376v25.175h5.376zm80.64 25.176h-8.939v12.587h-8.962v12.596h-8.963v12.587h8.963v12.587h8.962v12.595h8.955v-12.595h8.97v-12.587h8.955v-12.587h-8.955v-12.596h-8.97zm0 25.182h-8.948v12.587h8.963zm-53.76-25.182h-8.955v12.587h-8.962v12.596h-8.962v12.587h8.962v12.587h8.962v12.595h8.962v-12.595h8.963v-12.587h8.963v-12.587h-8.963v-12.596h-8.963zm0 25.182h-8.955v12.587h8.962zm71.693 50.358h-8.955v12.596h8.963zm-98.573-12.588h-5.376v25.183h5.376zm98.58 50.358h-8.955v-12.587h-8.97v-12.587h-8.955v-12.595h-8.962v-12.587h-8.963V163.67h-8.962v12.595h-8.963v12.587h-8.962v12.595h-8.963v12.587h-8.962v12.587h-8.963v12.587h-5.376v50.365h5.376v12.587h8.963v12.596h8.962v12.587h8.963v12.587h8.962v12.58h8.963v32.732h17.925V377.7h8.962v-12.587h8.955V352.51h8.97v-12.595h8.955V302.16h-8.955v12.595h-8.97v12.587h-8.955v12.587h-8.962v-12.587h-8.963v-12.587h-8.962V302.16h-8.963v-12.587h-8.962v-12.587h-8.963V264.39h8.963v-12.587h8.962v-12.595h26.88v12.595h-17.918v12.587h8.963v12.596h8.963v12.587h8.962v-12.587h8.955V264.39h8.97v-12.587h8.955zm0 50.366h-8.963v12.587h8.963zm-98.58 37.77h-5.376v12.587h5.376zm17.925 25.175h-8.962v12.58h-8.962v12.587h-5.376v20.145h5.376v-7.542h8.962v-12.587h8.962zm17.925 37.77h-8.963v7.557h8.963z"/><path fill="#fcfdff" d="M53.752 87.706H44.79V75.119h-8.955V62.524h-8.97V49.937h8.97V37.35h8.955V24.755h8.962V37.35h8.97v12.587h8.955v12.587h-8.955v12.595h-8.97v12.587zm107.582 0h-8.963V75.119h-8.962V62.524h-8.963V49.937h8.963V37.35h8.962V24.755h8.963V37.35h8.97v12.587h8.955v12.587h-8.955v12.595h-8.97v12.587z"/><path fill="#c7323e" d="M44.79 49.935h8.962v12.587H44.79V49.935zm107.182.423h8.963v12.587h-8.963V50.358z"/><path fill="#fff" d="M179.259 139.138h8.962v12.587h-8.962v-12.587zm-54.444-.883h8.962v12.587h-8.962v-12.587zm-53.138 0h8.963v12.587h-8.963v-12.587zm-53.775 0h8.963v12.587h-8.962v-12.587z"/><path fill="#c7323e" d="M35.459 768h26.88v-12.587h8.97v-12.595h8.962v-12.587h8.963v-12.587h8.962v-12.618h-8.963v-12.565H80.27v-12.587h-8.962v-12.596h-8.963v-12.587h-8.963v-12.587h-8.955v12.587h-8.97v12.587h-8.955v12.596H17.54v12.587H8.578v12.565H-.384v12.595h8.962v12.587h8.962v12.587h8.962v12.596h8.955zm8.969-25.183h8.955V730.23h8.963v-12.587h8.963v-12.618h-8.963V692.46h-8.963v-12.587h-8.955v12.587h-8.97v12.565h-8.955v12.595h8.955v12.587h8.97zm0-25.175h8.963v-12.618h-8.963zM-.384 755.413h8.962v-12.595H-.384zm0-75.541h8.962v-12.596H-.384zM98.197 768h5.376v-25.183h-5.376zm0-88.128h5.376v-25.183h-5.376zm-80.64-25.183h8.947v-12.587h8.955v-12.596h8.97v-12.587h-8.97v-12.587h-8.955v-12.596h-8.962v12.596H8.579v12.587H-.383v12.587h8.962v12.596h8.963zm0-25.183h8.947v-12.587h-8.962zm53.76 25.183h8.963v-12.587h8.962v-12.596h8.963v-12.587h-8.97v-12.587h-8.963v-12.596H71.31v12.596h-8.963v12.587h-8.963v12.587h8.963v12.596h8.963zm0-25.183h8.963v-12.587h-8.97zM-.384 579.149h8.962v-12.587H-.384zm98.581 12.587h5.376v-25.183h-5.376zM-.384 541.379h8.962v12.587h8.962v12.596h8.962v12.587h8.955v12.587h8.97v12.595h8.955v-12.595h8.963v-12.587h8.963v-12.587h8.962v-12.596h8.963v-12.587h8.962v-12.596h5.376v-50.319h-5.376v-12.626h-8.963v-12.595h-8.963v-12.587h-8.962v-12.587h-8.963v-12.58h-8.963v-32.747H35.456v7.557h-8.955v12.587h-8.962v12.603H8.577v12.587H-.385v37.77h8.962V453.25h8.962v-12.595h8.962v-12.587h8.955v12.587h8.97v12.587h8.955v12.596h8.963v12.626h8.963v12.587h8.962v12.595h-8.962v12.587h-8.963v12.587h-26.88v-12.626h17.917v-12.587h-8.955v-12.595h-8.97v-12.549h-8.955v12.587h-8.962v12.596H8.577v12.587H-.385zm0-50.366h8.962v-12.549H-.384zm98.581-37.77h5.376v-12.587h-5.376zm-17.926-25.175h8.963v-12.58h8.962v-12.596h5.376V382.74h-5.376v7.557h-8.963v12.587H80.27zm-17.925-37.77h8.963v-7.557h-8.963z"/><path fill="#c7323e" d="M169.897 768h-26.88v-12.587h-8.97v-12.595h-8.962v-12.587h-8.962v-12.587h-8.962v-12.618h8.962v-12.565h8.962v-12.587h8.962v-12.596h8.963v-12.587h8.963v-12.587h8.962v12.587h8.962v12.587h8.963v12.596h8.955v12.587h8.97v12.565h8.955v12.595h-8.955v12.587h-8.97v12.587h-8.955v12.596h-8.962zm-8.963-25.183h-8.963V730.23h-8.963v-12.587h-8.962v-12.618h8.962V692.46h8.963v-12.587h8.963v12.587h8.962v12.565h8.962v12.595h-8.962v12.587h-8.962zm0-25.175h-8.963v-12.618h8.963zm44.805 37.771h-8.963v-12.595h8.963zm0-75.541h-8.963v-12.596h8.963zM107.159 768h-5.376v-25.183h5.376zm0-88.128h-5.376v-25.183h5.376zm80.64-25.183h-8.939v-12.587h-8.962v-12.596h-8.963v-12.587h8.963v-12.587h8.962v-12.596h8.955v12.596h8.97v12.587h8.955v12.587h-8.955v12.596h-8.97zm0-25.183h-8.948v-12.587h8.963zm-53.76 25.183h-8.955v-12.587h-8.962v-12.596h-8.962v-12.587h8.962v-12.587h8.962v-12.596h8.962v12.596h8.963v12.587h8.963v12.587h-8.963v12.596h-8.963zm0-25.183h-8.955v-12.587h8.962zm71.693-50.357h-8.955v-12.587h8.963zm-98.573 12.587h-5.376v-25.183h5.376zm98.58-50.357h-8.955v12.587h-8.97v12.596h-8.955v12.587h-8.962v12.587h-8.963v12.595h-8.962v-12.595h-8.963v-12.587h-8.962v-12.587h-8.963v-12.596h-8.962v-12.587h-8.963v-12.596h-5.376v-50.319h5.376v-12.626h8.963v-12.595h8.962v-12.587h8.963v-12.587h8.962v-12.58h8.963v-32.747h17.925v7.557h8.962v12.587h8.955v12.603h8.97v12.587h8.955v37.77h-8.955V453.25h-8.97v-12.595h-8.955v-12.587h-8.962v12.587h-8.963v12.587h-8.962v12.596h-8.963v12.626h-8.962v12.587h-8.963v12.595h8.963v12.587h8.962v12.587h26.88v-12.626h-17.918v-12.587h8.963v-12.595h8.963v-12.549h8.962v12.587h8.955v12.596h8.97v12.587h8.955zm0-50.366h-8.963v-12.549h8.963zm-98.58-37.77h-5.376v-12.587h5.376zm17.925-25.175h-8.962v-12.58h-8.962v-12.596h-5.376V382.74h5.376v7.557h8.962v12.587h8.962zm17.925-37.77h-8.963v-7.557h8.963z"/><path fill="#fcfdff" d="M151.603 680.294h8.963v12.596h8.962v12.587h8.963v12.587h-8.963v12.596h-8.962v12.587h-8.963V730.66h-8.962v-12.596h-8.963v-12.587h8.963V692.89h8.962v-12.596zm-107.581 0h8.962v12.596h8.963v12.587h8.963v12.587h-8.963v12.596h-8.963v12.587h-8.962V730.66H35.06v-12.596h-8.963v-12.587h8.963V692.89h8.962v-12.596z"/><path fill="#c7323e" d="M151.595 705.477h8.962v12.587h-8.962v-12.587zm-107.167-.43h8.963v12.587h-8.963v-12.587z"/><path fill="#fff" d="M17.134 616.266h8.963v12.587h-8.962v-12.587zm54.444.891h8.963v12.587h-8.963v-12.587zm53.137 0h8.963v12.587h-8.963v-12.587zm53.776 0h8.963v12.587h-8.963v-12.587z"/></svg>