<svg id="Слой_1" data-name="Слой 1"
	xmlns="http://www.w3.org/2000/svg" viewBox="0 0 346.15 156.27">
	<defs>
		<style>.cls-1,.cls-3,.cls-4,.cls-5{fill:none;}.cls-1,.cls-3,.cls-4,.cls-5,.cls-6,.cls-7,.cls-9{stroke:#000;stroke-miterlimit:10;}.cls-1,.cls-9{stroke-width:0.5px;}.cls-2{fill:#1d1d1b;}.cls-4{stroke-width:2px;}.cls-5,.cls-6,.cls-7{stroke-width:1.11px;}.cls-6{fill:#87bee8;}.cls-7{fill:#0871b8;}.cls-8{fill:#211041;}.cls-9{fill:#e6e6e6;}.cls-10{fill:#fff;}</style>
	</defs>
	<path class="cls-1" d="M80,199.37c-3-26.08,13.82-38.17,35.43-32.89,22.33,5.46,35.26,16.14,42.83,35.8,8.89,23.06-31.32,43.32-53,45.26s-51.12-18.06-36.81-42c7.32-12.23,27-11.55,28.8-11.56" transform="translate(-64.37 -161.27)"/>
	<path class="cls-2" d="M260.52,226.88h1.6q2,0,2,1.56a1.51,1.51,0,0,1-1.36,1.5v0c1,.1,1.62.64,1.62,1.54,0,1.2-.88,1.76-2.23,1.76h-1.61Zm.27.25v2.71h1.42a1.77,1.77,0,0,0,1.15-.38,1.24,1.24,0,0,0,.47-1c0-.89-.57-1.34-1.72-1.34Zm0,3V233h1.34c1.25,0,2-.51,2-1.53s-.7-1.38-1.94-1.38Z" transform="translate(-64.37 -161.27)"/>
	<path class="cls-2" d="M266.09,233.22h-.26v-4.08h.26v3.71l3-3.71h.26v4.08h-.26v-3.71Z" transform="translate(-64.37 -161.27)"/>
	<path class="cls-2" d="M270.25,229.4v-.26H274v.26h-1.73v3.82H272V229.4Z" transform="translate(-64.37 -161.27)"/>
	<path class="cls-2" d="M278,232.69a1.94,1.94,0,0,1-1.48.61,2.11,2.11,0,0,1-1.54-.58,2,2,0,0,1-.6-1.54,2.15,2.15,0,0,1,.53-1.52,1.88,1.88,0,0,1,1.49-.6,1.75,1.75,0,0,1,1.82,1.83c0,.08,0,.17,0,.28h-3.54a1.76,1.76,0,0,0,1.87,1.89,1.82,1.82,0,0,0,1.38-.56ZM274.65,231H278a1.51,1.51,0,0,0-1.6-1.65A1.65,1.65,0,0,0,274.65,231Z" transform="translate(-64.37 -161.27)"/>
	<path class="cls-2" d="M282.9,227a1.09,1.09,0,0,1-.86.5,4.49,4.49,0,0,0-1.34.3c-.78.32-1.21,1.2-1.29,2.62h0a1.76,1.76,0,0,1,.73-.89,2.12,2.12,0,0,1,1.16-.34,1.89,1.89,0,0,1,1.44.57,2.28,2.28,0,0,1-.07,3,1.93,1.93,0,0,1-1.44.6,1.88,1.88,0,0,1-1.52-.66,2.73,2.73,0,0,1-.57-1.83c0-1.79.49-2.88,1.47-3.29a3.33,3.33,0,0,1,.89-.23c.65-.08,1-.13,1.24-.5Zm-3,5.52a1.62,1.62,0,0,0,1.29.58,1.66,1.66,0,0,0,1.27-.54,1.77,1.77,0,0,0,.52-1.29,1.67,1.67,0,0,0-1.75-1.83,1.79,1.79,0,0,0-1.25.44,1.75,1.75,0,0,0-.59,1A2.41,2.41,0,0,0,279.94,232.48Z" transform="translate(-64.37 -161.27)"/>
	<path class="cls-2" d="M287.86,232.64a1.92,1.92,0,0,1-1.51.66,2.12,2.12,0,0,1-1.54-.58,2.06,2.06,0,0,1-.59-1.54,2.12,2.12,0,0,1,.58-1.5,1.89,1.89,0,0,1,1.42-.62,2.18,2.18,0,0,1,1.56.5l-.13.21a2,2,0,0,0-1.39-.46,1.71,1.71,0,0,0-1.26.54,2,2,0,0,0,0,2.7,1.9,1.9,0,0,0,1.36.51,1.82,1.82,0,0,0,1.36-.59Z" transform="translate(-64.37 -161.27)"/>
	<path class="cls-2" d="M289,233.22v-4.08h.26v4.08Zm3.12-4.08-2.18,2,2.34,2.13h-.38l-2.31-2.12,2.17-2Z" transform="translate(-64.37 -161.27)"/>
	<path class="cls-2" d="M293.23,229.43a2.34,2.34,0,0,1,1.25-.37c1,0,1.47.55,1.47,1.61v2.55h-.26v-.71a1.78,1.78,0,0,1-1.51.76,1.16,1.16,0,0,1-1.27-1.17c0-.79.63-1.24,1.55-1.24a2,2,0,0,1,1.23.33c0-.23,0-.4,0-.53a2.13,2.13,0,0,0-.16-.84,1.06,1.06,0,0,0-1.07-.51,2.23,2.23,0,0,0-1.14.34Zm1.69,3.47a1.73,1.73,0,0,0,.77-.65v-.81a2,2,0,0,0-1.21-.37,1.58,1.58,0,0,0-.92.26.84.84,0,0,0-.38.75,1,1,0,0,0,1.05.94A1.88,1.88,0,0,0,294.92,232.9Z" transform="translate(-64.37 -161.27)"/>
	<path class="cls-2" d="M300.14,229.14v4.08h-.25v-1.66h-1.21l-1.31,1.66H297l1.38-1.71a1.33,1.33,0,0,1-.74-.36,1.06,1.06,0,0,1-.32-.77c0-.74.47-1.24,1.62-1.24Zm-2.2,1.92a1.09,1.09,0,0,0,.67.26h1.28v-1.93h-.95c-.9,0-1.32.4-1.32,1A.85.85,0,0,0,297.94,231.06Z" transform="translate(-64.37 -161.27)"/>
	<path class="cls-2" d="M303.89,233.22v-4.08h.25V233h2v-3.84h.26V233h2v-3.84h.25v4.08Z" transform="translate(-64.37 -161.27)"/>
	<path class="cls-2" d="M310.2,229.14h1.25c1.09,0,1.63.34,1.63,1a.93.93,0,0,1-.87.95v0c.73.1,1,.42,1,1s-.61,1.13-1.78,1.13l-.68,0h-.59Zm.26.25V231h1.24c.68,0,1.11-.35,1.11-.86s-.46-.82-1.35-.82Zm0,1.86V233h1c1,0,1.51-.3,1.51-.9s-.45-.85-1.36-.85Z" transform="translate(-64.37 -161.27)"/>
	<path class="cls-2" d="M317.87,232.69a2,2,0,0,1-1.49.61,2.11,2.11,0,0,1-1.54-.58,2,2,0,0,1-.6-1.54,2.15,2.15,0,0,1,.53-1.52,1.88,1.88,0,0,1,1.49-.6,1.75,1.75,0,0,1,1.82,1.83c0,.08,0,.17,0,.28h-3.54a1.76,1.76,0,0,0,1.87,1.89,1.82,1.82,0,0,0,1.38-.56ZM314.5,231h3.32a1.51,1.51,0,0,0-1.6-1.65A1.65,1.65,0,0,0,314.5,231Z" transform="translate(-64.37 -161.27)"/>
	<path class="cls-2" d="M319.58,233.22h-.26v-4.08h.26v3.71l3-3.71h.25v4.08h-.25v-3.71Zm.62-6.23a.87.87,0,0,0,.95.85.85.85,0,0,0,.91-.85h.23a1.07,1.07,0,0,1-1.14,1.06A1.05,1.05,0,0,1,320,227Z" transform="translate(-64.37 -161.27)"/>
	<path class="cls-2" d="M327.63,233.22v-2h-3v2h-.26v-4.08h.26V231h3v-1.88h.26v4.08Z" transform="translate(-64.37 -161.27)"/>
	<path class="cls-2" d="M329.41,229.43a2.31,2.31,0,0,1,1.25-.37c1,0,1.46.55,1.46,1.61v2.55h-.25v-.71a1.78,1.78,0,0,1-1.51.76,1.16,1.16,0,0,1-1.27-1.17c0-.79.63-1.24,1.55-1.24a2,2,0,0,1,1.23.33c0-.23,0-.4,0-.53a2.13,2.13,0,0,0-.16-.84,1.06,1.06,0,0,0-1.07-.51,2.23,2.23,0,0,0-1.14.34Zm1.69,3.47a1.79,1.79,0,0,0,.77-.65v-.81a2,2,0,0,0-1.21-.37,1.56,1.56,0,0,0-.92.26.84.84,0,0,0-.38.75,1,1,0,0,0,1.05.94A1.88,1.88,0,0,0,331.1,232.9Z" transform="translate(-64.37 -161.27)"/>
	<path class="cls-2" d="M336.32,229.14v4.08h-.25v-1.66h-1.21l-1.31,1.66h-.33l1.38-1.71a1.3,1.3,0,0,1-.74-.36,1.06,1.06,0,0,1-.32-.77c0-.74.47-1.24,1.62-1.24Zm-2.2,1.92a1.09,1.09,0,0,0,.67.26h1.28v-1.93h-.95c-.9,0-1.32.4-1.32,1A.85.85,0,0,0,334.12,231.06Z" transform="translate(-64.37 -161.27)"/>
	<path class="cls-2" d="M342.14,235V233.3H342a2.18,2.18,0,0,1-1.61-.59,2.2,2.2,0,0,1,0-3,2.12,2.12,0,0,1,1.6-.63h.17v-2.18h.26v2.18h.19a2.12,2.12,0,0,1,1.57.61,2,2,0,0,1,.62,1.51,2.06,2.06,0,0,1-.6,1.53,2.15,2.15,0,0,1-1.59.59h-.19V235Zm-1.58-2.49a2,2,0,0,0,1.45.52h.13v-3.75H342a1.87,1.87,0,0,0-1.4.54,1.78,1.78,0,0,0-.53,1.33A1.82,1.82,0,0,0,340.56,232.54Zm1.84-3.23v3.75h.15a1.92,1.92,0,0,0,1.43-.52,2,2,0,0,0,0-2.68,1.82,1.82,0,0,0-1.39-.55Z" transform="translate(-64.37 -161.27)"/>
	<path class="cls-2" d="M346,229.43a2.34,2.34,0,0,1,1.25-.37c1.05,0,1.46.55,1.46,1.61v2.55h-.25v-.71a1.78,1.78,0,0,1-1.51.76,1.16,1.16,0,0,1-1.27-1.17c0-.79.63-1.24,1.55-1.24a2,2,0,0,1,1.23.33c0-.23,0-.4,0-.53a2.13,2.13,0,0,0-.16-.84,1.06,1.06,0,0,0-1.07-.51,2.23,2.23,0,0,0-1.14.34Zm1.69,3.47a1.79,1.79,0,0,0,.77-.65v-.81a2,2,0,0,0-1.21-.37,1.56,1.56,0,0,0-.92.26.84.84,0,0,0-.38.75A1,1,0,0,0,347,233,1.88,1.88,0,0,0,347.68,232.9Z" transform="translate(-64.37 -161.27)"/>
	<path class="cls-2" d="M353.59,227a1.09,1.09,0,0,1-.86.5,4.49,4.49,0,0,0-1.34.3c-.78.32-1.21,1.2-1.29,2.62h0a1.71,1.71,0,0,1,.73-.89,2.11,2.11,0,0,1,1.15-.34,1.9,1.9,0,0,1,1.45.57,2.28,2.28,0,0,1-.07,3,1.93,1.93,0,0,1-1.44.6,1.88,1.88,0,0,1-1.52-.66,2.73,2.73,0,0,1-.57-1.83c0-1.79.49-2.88,1.47-3.29a3.33,3.33,0,0,1,.89-.23c.65-.08,1-.13,1.24-.5Zm-3,5.52a1.62,1.62,0,0,0,1.29.58,1.66,1.66,0,0,0,1.27-.54,1.77,1.77,0,0,0,.52-1.29A1.67,1.67,0,0,0,352,229.4a1.79,1.79,0,0,0-1.25.44,1.75,1.75,0,0,0-.59,1A2.41,2.41,0,0,0,350.63,232.48Z" transform="translate(-64.37 -161.27)"/>
	<path class="cls-2" d="M355.21,235v-5.89h.27v.6a2.1,2.1,0,0,1,1.56-.68,1.83,1.83,0,0,1,1.42.57,2.12,2.12,0,0,1,.52,1.49,2.23,2.23,0,0,1-.58,1.57,2,2,0,0,1-1.49.61,2.33,2.33,0,0,1-1.43-.4V235Zm.27-5v2.63a2.37,2.37,0,0,0,1.42.44,1.73,1.73,0,0,0,1.31-.54,1.92,1.92,0,0,0,.5-1.37,1.65,1.65,0,0,0-1.72-1.84A2,2,0,0,0,355.48,230Z" transform="translate(-64.37 -161.27)"/>
	<path class="cls-2" d="M360.48,233.22h-.26v-4.08h.26v3.71l3-3.71h.25v4.08h-.25v-3.71Z" transform="translate(-64.37 -161.27)"/>
	<path class="cls-2" d="M365.3,233.22v-4.08h.27v4.08Zm3.13-4.08-2.18,2,2.33,2.13h-.38l-2.3-2.12,2.17-2Z" transform="translate(-64.37 -161.27)"/>
	<path class="cls-2" d="M369.55,229.43a2.37,2.37,0,0,1,1.26-.37c1.05,0,1.46.55,1.46,1.61v2.55H372v-.71a1.78,1.78,0,0,1-1.51.76,1.16,1.16,0,0,1-1.27-1.17c0-.79.63-1.24,1.55-1.24a2.05,2.05,0,0,1,1.23.33c0-.23,0-.4,0-.53a2.13,2.13,0,0,0-.16-.84,1.06,1.06,0,0,0-1.07-.51,2.23,2.23,0,0,0-1.14.34Zm1.7,3.47a1.79,1.79,0,0,0,.77-.65v-.81a2,2,0,0,0-1.21-.37,1.56,1.56,0,0,0-.92.26.84.84,0,0,0-.38.75,1,1,0,0,0,1.05.94A1.92,1.92,0,0,0,371.25,232.9Z" transform="translate(-64.37 -161.27)"/>
	<line class="cls-3" x1="116.8" y1="51.14" x2="322.38" y2="51.14"/>
	<line class="cls-4" x1="116.8" y1="58.55" x2="322.38" y2="58.55"/>
	<line class="cls-3" x1="322.38" y1="131.64" x2="116.8" y2="131.64"/>
	<line class="cls-4" x1="322.38" y1="124.23" x2="116.8" y2="124.23"/>
	<path class="cls-5" d="M82.66,190" transform="translate(-64.37 -161.27)"/>
	<path class="cls-6" d="M81.91,182.62" transform="translate(-64.37 -161.27)"/>
	<path class="cls-6" d="M230.31,216.61c-.95-4.91-12.07-10-12.07-10h0a10.94,10.94,0,0,0-6.61-2.29l-81.29-.86A13.63,13.63,0,0,0,118,211.12L87.11,274.39a15.22,15.22,0,0,0,13.68,21.89H169a26.43,26.43,0,0,0,23.93-15.21l16-34.12c8,.71,9.38-1.83,9.38-1.83S231.25,221.52,230.31,216.61Z" transform="translate(-64.37 -161.27)"/>
	<path class="cls-7" d="M152,198s14.4-4.72,19.21.71S163,218.85,155.3,217.83C147,216.75,142.42,203.61,152,198Z" transform="translate(-64.37 -161.27)"/>
	<path class="cls-6" d="M171.52,198.72s1.44,10-16.22,19.11l2,13.88s38.71-7.33,21.62-27.64Z" transform="translate(-64.37 -161.27)"/>
	<path class="cls-6" d="M152,198s-14.3,10.67,3.35,19.82l-5.25,13.88s-15.7-6.24-5.58-28.08Z" transform="translate(-64.37 -161.27)"/>
	<path class="cls-6" d="M208.3,248.15s4.92-18.56,8.46-20.12" transform="translate(-64.37 -161.27)"/>
	<path class="cls-6" d="M214,225.74a27.11,27.11,0,0,1,4.46,4.23" transform="translate(-64.37 -161.27)"/>
	<path class="cls-6" d="M202.6,260.32s-15.65,13-17.06,18.12,5.09.64,5.09.64" transform="translate(-64.37 -161.27)"/>
	<path class="cls-6" d="M187.64,278.75a6.65,6.65,0,0,1,4.41,1" transform="translate(-64.37 -161.27)"/>
	<path class="cls-6" d="M186.19,277a8,8,0,0,1,4.7-1.56" transform="translate(-64.37 -161.27)"/>
	<path class="cls-6" d="M188.29,274.06s.74-.65,3.76-.55" transform="translate(-64.37 -161.27)"/>
	<path class="cls-6" d="M152.9,233.22s-12.28,33.9-17.94,40.84-1.13,22.22-1.13,22.22" transform="translate(-64.37 -161.27)"/>
	<ellipse class="cls-8" cx="156.63" cy="237.28" rx="1.89" ry="1.32" transform="translate(-175.95 170.36) rotate(-75.95)"/>
	<ellipse class="cls-8" cx="150.68" cy="249.88" rx="1.89" ry="1.32" transform="translate(-192.67 174.13) rotate(-75.95)"/>
	<ellipse class="cls-8" cx="144.54" cy="264.28" rx="1.89" ry="1.32" transform="translate(-211.29 179.08) rotate(-75.95)"/>
	<ellipse class="cls-8" cx="137.75" cy="276.27" rx="1.89" ry="1.32" transform="translate(-228.06 181.57) rotate(-75.95)"/>
	<path class="cls-9" d="M70.92,161.93c-2.83,1.79-1.49,8.95,3,16Q74.58,179,75.3,180l94,137.4L85.37,173.64c-.39-.72-.8-1.44-1.26-2.17C79.65,164.42,73.74,160.15,70.92,161.93ZM90.3,186.42c4.33,6.73,6.72,12.9,5.33,13.79s-6-3.84-10.34-10.57-6.72-12.91-5.33-13.8S86,179.69,90.3,186.42Z" transform="translate(-64.37 -161.27)"/>
	<path class="cls-2" d="M247.07,247.35H247a49.12,49.12,0,0,0-3.16,10,18.18,18.18,0,0,0-.18,6.71,6,6,0,0,0,1.15,2.52,2.93,2.93,0,0,0,2.43,1.06,5.82,5.82,0,0,0,2.73-.73,14.19,14.19,0,0,0,2.77-1.91,25.66,25.66,0,0,0,2.64-2.67c.85-1,1.64-2,2.37-3s1.37-1.95,1.94-2.88,1-1.72,1.4-2.37a.24.24,0,0,1,.18-.06q.12.12.06.18c-.37.69-.84,1.52-1.43,2.49s-1.24,2-2,3-1.52,2.08-2.37,3.09a22,22,0,0,1-2.67,2.7,15.43,15.43,0,0,1-2.86,2,6.32,6.32,0,0,1-2.91.76,3.39,3.39,0,0,1-2.76-1.22,7.26,7.26,0,0,1-1.43-2.79,17.36,17.36,0,0,1,0-6.92A51.81,51.81,0,0,1,246,247a48.2,48.2,0,0,0,3.28-10.23,16.71,16.71,0,0,0,.06-6.77,5.34,5.34,0,0,0-1.13-2.24,2.8,2.8,0,0,0-2.27-1,3.77,3.77,0,0,0-.91.13c-.33.08-.67.18-1,.3q-3.15,1.27-7,6.19a58.1,58.1,0,0,0-7.53,13.85s-.06.06-.18.06a.24.24,0,0,1-.06-.18c.36-.93.85-2.1,1.45-3.5s1.33-2.87,2.16-4.43,1.75-3.12,2.76-4.67a31.45,31.45,0,0,1,3.22-4.19,18.4,18.4,0,0,1,3.52-3A6.74,6.74,0,0,1,246,226.1a3.51,3.51,0,0,1,2.64,1,5.92,5.92,0,0,1,1.43,2.61,19,19,0,0,1,.06,7A47.71,47.71,0,0,1,247.07,247.35Z" transform="translate(-64.37 -161.27)"/>
	<path class="cls-2" d="M260.37,253.91c.4-.93,1-2.18,1.82-3.74a38.18,38.18,0,0,1,2.82-4.58,21.8,21.8,0,0,1,3.49-3.86,5.85,5.85,0,0,1,3.77-1.61,2.62,2.62,0,0,1,.57.06,2.8,2.8,0,0,1,.58.19,3.06,3.06,0,0,1,1.58,2.18,11.31,11.31,0,0,1,0,4.62,30.27,30.27,0,0,1-2.22,7,38.62,38.62,0,0,1-4.7,8.77,17,17,0,0,1-4.53,4.47,4.48,4.48,0,0,0,2.07-.25,14.67,14.67,0,0,0,6.16-4,28.28,28.28,0,0,0,5.8-9.14.13.13,0,0,1,.24.12,37.74,37.74,0,0,1-2.15,4.37,28.71,28.71,0,0,1-3.19,4.56,19.2,19.2,0,0,1-4,3.58,8.42,8.42,0,0,1-4.7,1.46,5,5,0,0,1-1.4-.19,3.79,3.79,0,0,1-1.15.19,2.43,2.43,0,0,1-1.79-.7,4,4,0,0,1-1-1.73,11.8,11.8,0,0,1-.12-4.56,30.77,30.77,0,0,1,1.95-7A.35.35,0,0,0,260.37,253.91Zm.06,13.36a1.73,1.73,0,0,0,.79.18,5,5,0,0,1-2.25-3.1c0,.2.07.41.09.61s.05.4.09.61A2.35,2.35,0,0,0,260.43,267.27Zm.91-12.94a20.19,20.19,0,0,0-1.88,7.47,6.19,6.19,0,0,0,1.39,4.43,5,5,0,0,0,1.64,1,.25.25,0,0,1,.18-.07,13,13,0,0,0,4.74-4.06,40.28,40.28,0,0,0,5.16-9,30.88,30.88,0,0,0,2-6.92,11,11,0,0,0-.1-4.5,2.69,2.69,0,0,0-1.33-1.76,2.12,2.12,0,0,0-.85-.12,4.29,4.29,0,0,0-2.34.76,12.11,12.11,0,0,0-2.31,2,20.88,20.88,0,0,0-2.12,2.74c-.67,1-1.28,2-1.82,3s-1,2-1.43,2.86S261.58,253.77,261.34,254.33Z" transform="translate(-64.37 -161.27)"/>
	<path class="cls-2" d="M276.88,253.91l5.59-13.48a.53.53,0,0,1,.73-.25c.32.09.4.31.24.67l-1.94,4.8c.36-.49.82-1.05,1.36-1.7a19.51,19.51,0,0,1,1.79-1.85,10.23,10.23,0,0,1,2-1.46,4.3,4.3,0,0,1,2.09-.58,2.63,2.63,0,0,1,1.22.25,2.86,2.86,0,0,1,1.64,2.12,11.62,11.62,0,0,1,0,4.68,32.26,32.26,0,0,1-2.22,7.1,41.12,41.12,0,0,1-4.77,8.87,16.51,16.51,0,0,1-4.58,4.49,9,9,0,0,0,4.74-1.34,18.22,18.22,0,0,0,4-3.34,24.6,24.6,0,0,0,3.19-4.37,41.1,41.1,0,0,0,2.22-4.37q.12-.12.18-.12a.24.24,0,0,1,.06.18,35.54,35.54,0,0,1-2.19,4.37,31.5,31.5,0,0,1-3.21,4.59,19,19,0,0,1-4,3.61,8.45,8.45,0,0,1-4.71,1.46,5.55,5.55,0,0,1-1.45-.19,3.8,3.8,0,0,1-1.16.19,3.21,3.21,0,0,1-1.09-.19,3.15,3.15,0,0,1-1.7-2.18,8.25,8.25,0,0,1-.31-1.76,15.24,15.24,0,0,1,.07-2.19l-8.08,19.37v.06L261,294.77a.5.5,0,0,1-.72.31c-.33-.17-.41-.39-.25-.67l11.17-27L276.88,254v-.06a50,50,0,0,1,2.25-4.62,30.2,30.2,0,0,1,2.37-3.64l-3.28,7.77-.37.91v.06h-.06v.06l-.06.06h-.06v.06h-.06a.21.21,0,0,1-.18.07h-.06a1.56,1.56,0,0,1-.37-.13l-.12-.12v-.06s0-.06,0-.06,0,0,0-.12V254l.06-.06v-.12h.06c0-.08.07-.13.09-.13s.05,0,.09-.06a.13.13,0,0,0,.1,0,.12.12,0,0,1,.09,0h.24v.06h.12v.06h.06v.07h.06v.06h.06V254h.06v.06a.24.24,0,0,1-.06.18v.12h-.06v.06l-.06.06h-.06v.06h-.06a.21.21,0,0,1-.18.07h-.06a1.56,1.56,0,0,1-.37-.13l-.12-.12v-.06s0-.06,0-.06,0,0,0-.12V254l.06-.06v-.06q.06-.12.12-.12v-.07l.12-.06h.07l.06-.06h.3v.06h.12v.06h.06v.07h.06v.06a.05.05,0,0,1,.06.06V254a.17.17,0,0,1,.06.12v.06h-.06v.18a1,1,0,0,0-.15.34,1,1,0,0,1-.15.33l-2.43,5.77a22.36,22.36,0,0,1,.52-3.13,22.58,22.58,0,0,1,1.24-3.73v-.12h.06a.05.05,0,0,1,.06-.06v-.07l.12-.06h.07a.67.67,0,0,1,.3-.06h.06v.06h.12v.06h.06v.07h.06a.05.05,0,0,0,.06.06V254h.06v.12a.24.24,0,0,0-.06.18l-.18.37A19.35,19.35,0,0,0,276,262a6.23,6.23,0,0,0,1.4,4.31,3.76,3.76,0,0,0,1.64,1,.24.24,0,0,0,.18-.06,13.64,13.64,0,0,0,4.8-4.07,38.24,38.24,0,0,0,5.22-9.11,31.72,31.72,0,0,0,2-7,11.38,11.38,0,0,0-.09-4.53,2.31,2.31,0,0,0-1.34-1.76,1.87,1.87,0,0,0-.85-.18,5.07,5.07,0,0,0-3.37,1.52,21.07,21.07,0,0,0-3.12,3.61,36.21,36.21,0,0,0-2.55,4.25c-.73,1.44-1.28,2.56-1.64,3.37l-.37.91v.06a1.56,1.56,0,0,0-.18.31l-.12.36a33.82,33.82,0,0,0-1.7,5.44,14.39,14.39,0,0,0-.36,4v-.06a9.53,9.53,0,0,1-.37-3.58l-.42,1.09a27.09,27.09,0,0,1,.69-3.58A37.24,37.24,0,0,1,276.88,253.91Zm.85,13.66a5.08,5.08,0,0,1-2.24-3.1,4.51,4.51,0,0,0,.54,2A1.81,1.81,0,0,0,277.73,267.57Z" transform="translate(-64.37 -161.27)"/>
	<path class="cls-2" d="M299.1,240.43c.17-.33.39-.41.67-.25s.47.35.31.67l-5.59,13.42v.06a32.87,32.87,0,0,0-2.19,6.8,10.22,10.22,0,0,0,0,4.44,2.35,2.35,0,0,0,1.28,1.7,2.31,2.31,0,0,0,.91.18,3.78,3.78,0,0,0,1.34-.25,12,12,0,0,0,4-3.15,31.57,31.57,0,0,0,4.41-6.62c.16-.57.34-1.13.54-1.7s.43-1.18.67-1.82l2.85-6.87c.16-.36.39-.46.67-.3s.47.35.31.67l-2.86,6.86a32,32,0,0,0-2.18,6.83,10,10,0,0,0,0,4.47,2.32,2.32,0,0,0,1.27,1.7,2.62,2.62,0,0,0,.91.18,4.29,4.29,0,0,0,2.34-.76,13.07,13.07,0,0,0,2.31-1.94,24.33,24.33,0,0,0,2.18-2.68c.71-1,1.35-2,1.91-2.94s1.08-1.9,1.52-2.79.79-1.62,1-2.19a.21.21,0,0,1,.19-.12.24.24,0,0,1,.06.18c-.37.93-.94,2.19-1.73,3.76a39.54,39.54,0,0,1-2.74,4.65,20.76,20.76,0,0,1-3.4,3.92,5.66,5.66,0,0,1-3.73,1.64,2.41,2.41,0,0,1-1.15-.25,3.05,3.05,0,0,1-1.7-2.18q-.8-2.37.3-6.74a26.8,26.8,0,0,1-1.55,2.64,30,30,0,0,1-2.24,3,14.85,14.85,0,0,1-2.68,2.49,4.88,4.88,0,0,1-2.88,1,2.51,2.51,0,0,1-1.85-.7,3.93,3.93,0,0,1-1-1.73,12.21,12.21,0,0,1-.13-4.68,29.65,29.65,0,0,1,2.07-7.16Z" transform="translate(-64.37 -161.27)"/>
	<path class="cls-2" d="M316.71,266.6a.45.45,0,0,1,.61,0,1.94,1.94,0,0,0,1,.24,3.78,3.78,0,0,0,1.58-.36c.93-1,1.86-1.93,2.79-2.86s1.89-1.84,2.86-2.73c.6-.93,1.22-2,1.85-3.13a36.61,36.61,0,0,0,1.79-3.85,32.87,32.87,0,0,0,2.19-6.8,10.22,10.22,0,0,0,0-4.44,3.77,3.77,0,0,0-.76-1.36,1.74,1.74,0,0,0-1.37-.58,5.38,5.38,0,0,0-3.55,1.61,21.53,21.53,0,0,0-3.31,3.79,41.48,41.48,0,0,0-2.7,4.47c-.79,1.52-1.37,2.7-1.73,3.55q0,.24-.18.06s-.07-.06-.07-.18c.37-.93.94-2.18,1.74-3.74a41.56,41.56,0,0,1,2.73-4.61,21.62,21.62,0,0,1,3.4-4,5.61,5.61,0,0,1,3.73-1.67,2.7,2.7,0,0,1,2.8,2.37,12.67,12.67,0,0,1,.12,4.71,29.73,29.73,0,0,1-2.07,7.13v.06c-.32.81-.67,1.58-1,2.31s-.73,1.44-1.09,2.12a59.07,59.07,0,0,1,6.68-4.73.24.24,0,0,1,.18.06s0,.1-.06.18c-1.22.73-2.43,1.54-3.65,2.43s-2.42,1.84-3.64,2.85c-.4.73-.9,1.53-1.49,2.4a21.92,21.92,0,0,1-1.94,2.49,14.72,14.72,0,0,1-2.28,2.07,7.93,7.93,0,0,1-2.55,1.24,5.44,5.44,0,0,1-.36.43,5.5,5.5,0,0,0-.37.42,14.21,14.21,0,0,1,1.07,3.52,16.12,16.12,0,0,1,.15,4.07,19.89,19.89,0,0,1-.88,4.31,28.76,28.76,0,0,1-1.76,4.28,38.81,38.81,0,0,1-2.37,4,25.24,25.24,0,0,1-2.76,3.46,13.34,13.34,0,0,1-2.61,2.16,4.74,4.74,0,0,1-2.37.82,2.47,2.47,0,0,1-1.82-.67,3.32,3.32,0,0,1-.73-2.67,20.31,20.31,0,0,1,2-6.74,53.52,53.52,0,0,1,5.13-8.87c.85-1.17,1.8-2.39,2.86-3.64s2.1-2.47,3.15-3.64a13.72,13.72,0,0,0-1-1.7A.47.47,0,0,1,316.71,266.6Zm1.1,2.85c-1,1.17-2,2.37-3.07,3.58s-1.95,2.41-2.76,3.59a54.73,54.73,0,0,0-5,8.71,19.9,19.9,0,0,0-1.95,6.65,5.26,5.26,0,0,0,.16,1.27,1.65,1.65,0,0,0,.51.91,1.26,1.26,0,0,0,.67.34,3.83,3.83,0,0,0,.79.09,4.06,4.06,0,0,0,2.46-1.15,20.34,20.34,0,0,0,2.64-2.74,32.33,32.33,0,0,0,2.28-3.18c.66-1.08,1.16-1.9,1.48-2.46a29.41,29.41,0,0,0,1.89-4.68,22.19,22.19,0,0,0,.85-4.25A15.09,15.09,0,0,0,317.81,269.45Zm.48-1.27a.84.84,0,0,0,.15-.19.32.32,0,0,1,.15-.12h-.42a.53.53,0,0,1,.06.15A.54.54,0,0,0,318.29,268.18Zm6.13-5.77q-1.64,1.51-3.27,3.28a12,12,0,0,0,1.6-1.37A19.33,19.33,0,0,0,324.42,262.41Z" transform="translate(-64.37 -161.27)"/>
	<path class="cls-2" d="M333.9,253.91c.4-.93,1-2.18,1.82-3.74a38.18,38.18,0,0,1,2.82-4.58,21.8,21.8,0,0,1,3.49-3.86,5.85,5.85,0,0,1,3.77-1.61,2.78,2.78,0,0,1,.58.06,2.93,2.93,0,0,1,.57.19,3.06,3.06,0,0,1,1.58,2.18,11.31,11.31,0,0,1,0,4.62,30.27,30.27,0,0,1-2.22,7,38.62,38.62,0,0,1-4.7,8.77,17,17,0,0,1-4.53,4.47,4.48,4.48,0,0,0,2.07-.25,14.67,14.67,0,0,0,6.16-4,28.28,28.28,0,0,0,5.8-9.14.13.13,0,0,1,.24.12,37.74,37.74,0,0,1-2.15,4.37,28.71,28.71,0,0,1-3.19,4.56,19.2,19.2,0,0,1-4,3.58,8.42,8.42,0,0,1-4.7,1.46,4.93,4.93,0,0,1-1.4-.19,3.79,3.79,0,0,1-1.15.19,2.43,2.43,0,0,1-1.79-.7,4,4,0,0,1-1-1.73,11.8,11.8,0,0,1-.12-4.56,31.2,31.2,0,0,1,1.94-7A.32.32,0,0,0,333.9,253.91Zm.06,13.36a1.73,1.73,0,0,0,.79.18,5,5,0,0,1-2.25-3.1c0,.2.07.41.09.61s.05.4.09.61A2.33,2.33,0,0,0,334,267.27Zm.91-12.94A20.19,20.19,0,0,0,333,261.8a6.19,6.19,0,0,0,1.39,4.43,5,5,0,0,0,1.64,1,.25.25,0,0,1,.18-.07,13,13,0,0,0,4.74-4.06,40.28,40.28,0,0,0,5.16-9,30.27,30.27,0,0,0,2-6.92,10.89,10.89,0,0,0-.09-4.5,2.72,2.72,0,0,0-1.33-1.76,2.15,2.15,0,0,0-.85-.12,4.29,4.29,0,0,0-2.34.76,12.11,12.11,0,0,0-2.31,2,20.88,20.88,0,0,0-2.12,2.74c-.67,1-1.28,2-1.82,3s-1,2-1.43,2.86S335.11,253.77,334.87,254.33Z" transform="translate(-64.37 -161.27)"/>
	<path class="cls-2" d="M368.08,240.37a.46.46,0,0,1,.27-.34.4.4,0,0,1,.4,0c.32.16.42.39.3.67l-5.64,13.6a28.67,28.67,0,0,0-2.22,6.86,10.56,10.56,0,0,0,0,4.5,2.52,2.52,0,0,0,1.27,1.76,2.1,2.1,0,0,0,.92.18,4.37,4.37,0,0,0,2.39-.76,12.5,12.5,0,0,0,2.34-2,23,23,0,0,0,2.19-2.7c.69-1,1.32-2,1.91-3s1.1-2,1.55-2.85.79-1.62,1-2.19A.19.19,0,0,1,375,254a.24.24,0,0,1,.06.18c-.36.93-.94,2.2-1.73,3.79a35.21,35.21,0,0,1-2.79,4.68,24,24,0,0,1-3.46,3.95,5.69,5.69,0,0,1-3.8,1.67,3.5,3.5,0,0,1-1.09-.18,3.44,3.44,0,0,1-1.76-2.25,12,12,0,0,1-.12-4.59,31.29,31.29,0,0,1,1.94-7H351.38v.06l-5.64,13.54c-.17.37-.39.47-.67.31a.51.51,0,0,1-.31-.73l11.3-27.08c.16-.37.38-.47.67-.31s.46.35.3.67L351.5,254h10.87v-.06h.06Z" transform="translate(-64.37 -161.27)"/>
	<path class="cls-2" d="M379.68,240.43c.12-.33.36-.43.73-.31a.51.51,0,0,1,.3.67l-2.37,5.71a20.86,20.86,0,0,1,3.16-4.07,9.35,9.35,0,0,1,3-2.06,4.08,4.08,0,0,1,1.64-.37,2.57,2.57,0,0,1,1.86.67,3.76,3.76,0,0,1,1,1.7q.78,2.43-.3,6.8a28.32,28.32,0,0,1,4-5.95,10.83,10.83,0,0,1,3.74-2.85,4,4,0,0,1,1.64-.37,2.57,2.57,0,0,1,1.85.67,3.76,3.76,0,0,1,1,1.7,12.49,12.49,0,0,1,.09,4.74,32.71,32.71,0,0,1-2,7.22h-.06a30.17,30.17,0,0,0-2.16,6.83,10.59,10.59,0,0,0,0,4.47,2.33,2.33,0,0,0,1.28,1.7,2.58,2.58,0,0,0,.91.18,4.29,4.29,0,0,0,2.34-.76,13,13,0,0,0,2.3-1.94,24.38,24.38,0,0,0,2.19-2.68,35.31,35.31,0,0,0,1.91-3c.57-1,1.07-1.93,1.52-2.82s.79-1.62,1-2.19a.19.19,0,0,1,.18-.12.24.24,0,0,1,.06.18c-.24.61-.58,1.39-1,2.34s-1,1.94-1.55,3-1.22,2.07-1.91,3.1a20.93,20.93,0,0,1-2.22,2.79,13.12,13.12,0,0,1-2.42,2,4.72,4.72,0,0,1-2.52.79,2.13,2.13,0,0,1-1.1-.25,3.21,3.21,0,0,1-1.76-2.18,12.14,12.14,0,0,1-.09-4.68,32.26,32.26,0,0,1,2-7.22H398a30.59,30.59,0,0,0,2.15-6.83,10.59,10.59,0,0,0,0-4.47,2.36,2.36,0,0,0-1.27-1.76,1.93,1.93,0,0,0-.85-.18,4.84,4.84,0,0,0-3,1.18,18.33,18.33,0,0,0-2.85,2.8,27.2,27.2,0,0,0-2.37,3.31c-.69,1.13-1.22,2.06-1.58,2.79-.16.57-.34,1.14-.55,1.73s-.42,1.2-.66,1.85l-5.65,13.48c-.16.32-.39.41-.67.24s-.47-.3-.3-.66l5.64-13.48a31.53,31.53,0,0,0,2.19-6.83,10.35,10.35,0,0,0,0-4.47,3.34,3.34,0,0,0-.76-1.39,1.77,1.77,0,0,0-1.37-.55,4.52,4.52,0,0,0-2.61.94,14.85,14.85,0,0,0-2.52,2.28,27.72,27.72,0,0,0-2.15,2.76c-.65.95-1.16,1.73-1.52,2.34l-7.89,18.82c-.08.32-.31.41-.67.24s-.39-.3-.3-.66Z" transform="translate(-64.37 -161.27)"/>
	<path class="cls-1" d="M79.83,198s23,142.09,181.39,70.17" transform="translate(-64.37 -161.27)"/>
	<path d="M93.91,193.79c3-.1,6.08-.1,9.12,0a59.83,59.83,0,0,1,9.06.92,59.9,59.9,0,0,0-9.07-.67c-3,0-6.07.05-9.09.22Z" transform="translate(-64.37 -161.27)"/>
	<polygon class="cls-10" points="36.2 47.66 62.16 88.61 35.36 48.2 36.2 47.66"/>
</svg>