<?xml version="1.0" encoding="UTF-8"?> <svg xmlns="http://www.w3.org/2000/svg" width="111" height="87" viewBox="0 0 111 87" fill="none"> <path d="M69.8837 9.89258H15.7133C13.1259 9.89258 11.0344 11.9913 11.0344 14.5715V31.3322L12.5437 41.8687H34.623L40.0062 31.3322H69.8837V62.9705H2V79.7168C2 82.6492 4.3718 85.021 7.3042 85.021H98.5178C101.45 85.021 103.822 82.6492 103.822 79.7168V14.4349C103.822 11.9266 101.788 9.89258 99.2796 9.89258H69.8837V9.89258Z" stroke="#231F20" stroke-width="3" stroke-miterlimit="10" stroke-linecap="round" stroke-linejoin="round"></path> <path d="M105.849 32.8272H103.829V16.4043H105.849C107.48 16.4043 108.803 17.7268 108.803 19.3583V29.8804C108.803 31.5119 107.48 32.8272 105.849 32.8272Z" stroke="#231F20" stroke-width="3" stroke-miterlimit="10" stroke-linecap="round" stroke-linejoin="round"></path> <path d="M89.1455 2H93.1847V9.89162H89.1455V2Z" stroke="#231F20" stroke-width="3" stroke-miterlimit="10" stroke-linecap="round" stroke-linejoin="round"></path> <path d="M33.5518 9.89258V41.8759" stroke="#231F20" stroke-width="3" stroke-miterlimit="10" stroke-linecap="round" stroke-linejoin="round"></path> <path d="M86.853 30.0166C90.3342 30.0166 93.1563 27.1946 93.1563 23.7134C93.1563 20.2322 90.3342 17.4102 86.853 17.4102C83.3719 17.4102 80.5498 20.2322 80.5498 23.7134C80.5498 27.1946 83.3719 30.0166 86.853 30.0166Z" fill="#CC4FB7" stroke="#231F20" stroke-width="3" stroke-miterlimit="10" stroke-linecap="round" stroke-linejoin="round"></path> <path d="M86.8524 55.07C91.7824 55.07 95.7789 51.0734 95.7789 46.1434C95.7789 41.2134 91.7824 37.2168 86.8524 37.2168C81.9223 37.2168 77.9258 41.2134 77.9258 46.1434C77.9258 51.0734 81.9223 55.07 86.8524 55.07Z" fill="#CC4FB7" stroke="#231F20" stroke-width="3" stroke-miterlimit="10" stroke-linecap="round" stroke-linejoin="round"></path> <path d="M63.9111 62.9766H103.829" stroke="#231F20" stroke-width="3" stroke-miterlimit="10" stroke-linecap="round" stroke-linejoin="round"></path> <path d="M2 79.7229H46.5323V62.9766" stroke="#231F20" stroke-width="3" stroke-miterlimit="10" stroke-linecap="round" stroke-linejoin="round"></path> <path d="M26.2715 41.875V55.0708" stroke="#231F20" stroke-width="3" stroke-miterlimit="10" stroke-linecap="round" stroke-linejoin="round"></path> <path d="M11.0342 31.3379H33.5519" stroke="#231F20" stroke-width="3" stroke-miterlimit="10" stroke-linecap="round" stroke-linejoin="round"></path> </svg> 