<?xml version="1.0" encoding="utf-8"?><svg xmlns="http://www.w3.org/2000/svg" xmlns:xlink="http://www.w3.org/1999/xlink"><defs><svg viewBox="0 0 439 512" id="github" xmlns="http://www.w3.org/2000/svg"><path d="M219.429 36.572c121.143 0 219.429 98.285 219.429 219.428 0 96.857-62.857 179.143-150 208.286-11.143 2-15.143-4.857-15.143-10.572 0-7.143.286-30.857.286-60.286 0-20.572-6.857-33.714-14.857-40.572 48.857-5.428 100.286-24 100.286-108.286 0-24-8.572-43.428-22.572-58.857 2.286-5.714 9.714-28-2.286-58.285C316.286 121.713 274.286 150 274.286 150c-17.428-4.857-36.286-7.429-54.857-7.429s-37.429 2.571-54.857 7.428c0 0-42-28.285-60.285-22.572-12 30.285-4.572 52.572-2.285 58.285-14 15.428-22.572 34.857-22.572 58.857 0 84 51.143 102.857 100 108.285-6.286 5.714-12 15.428-14 29.428-12.572 5.714-44.572 15.428-63.715-18.286C89.715 343.139 68 341.424 68 341.424c-21.428-.286-1.428 13.428-1.428 13.428 14.285 6.572 24.285 32 24.285 32 12.857 39.143 74 26 74 26 0 18.286.286 35.428.286 40.857 0 5.714-4 12.572-15.143 10.572C62.857 435.138 0 352.853 0 255.995 0 134.852 98.285 36.566 219.429 36.566zM83.143 351.714c.572-1.143-.285-2.572-2-3.428-1.715-.572-3.143-.286-3.715.572-.572 1.143.285 2.572 2 3.428 1.428.857 3.143.572 3.715-.572zM92 361.428c1.143-.857.857-2.857-.572-4.572-1.428-1.428-3.428-2-4.572-.857-1.143.857-.857 2.857.572 4.572 1.428 1.428 3.428 2 4.572.857zm8.572 12.858c1.428-1.143 1.428-3.428 0-5.428-1.143-2-3.428-2.857-4.857-1.714-1.428.857-1.428 3.143 0 5.143s3.715 2.857 4.857 2zm12 12c1.143-1.143.572-3.714-1.143-5.428-2-2-4.572-2.286-5.715-.857-1.428 1.143-.857 3.714 1.143 5.428 2 2 4.572 2.286 5.715.857zm16.285 7.142c.571-1.714-1.143-3.714-3.715-4.572-2.285-.572-4.857.286-5.428 2s1.143 3.714 3.715 4.286c2.285.857 4.857 0 5.428-1.714zm18 1.429c0-2-2.286-3.428-4.857-3.143-2.571 0-4.572 1.428-4.572 3.143 0 2 2 3.428 4.857 3.143 2.571 0 4.571-1.428 4.571-3.143zM163.429 392c-.286-1.714-2.571-2.857-5.143-2.572-2.571.572-4.286 2.286-4 4.286.286 1.714 2.571 2.857 5.143 2.286s4.286-2.286 4-4z"/></svg><svg viewBox="0 0 448 448" id="telegram" xmlns="http://www.w3.org/2000/svg"><path d="M385.747 69.384 54.787 197.008c-22.587 9.072-22.456 21.672-4.144 27.291l84.971 26.507 196.597-124.04c9.296-5.656 17.789-2.613 10.808 3.584L183.736 274.121l-5.861 87.584c8.587 0 12.376-3.939 17.192-8.587l41.272-40.133 85.848 63.411c15.829 8.717 27.197 4.237 31.136-14.653l56.355-265.589c5.768-23.128-8.829-33.6-23.931-26.768z"/></svg><svg viewBox="0 0 490 448" id="vk-icon" xmlns="http://www.w3.org/2000/svg"><path d="M479.25 130c3.75 10.25-8 34.25-37.5 73.5C393.25 268 388 262 428 299.25c38.5 35.75 46.5 53 47.75 55.25 0 0 16 28-17.75 28.25l-64 1c-13.75 2.75-32-9.75-32-9.75-24-16.5-46.5-59.25-64-53.75 0 0-18 5.75-17.5 44.25.25 8.25-3.75 12.75-3.75 12.75s-4.5 4.75-13.25 5.5h-28.75c-63.25 4-119-54.25-119-54.25s-61-63-114.5-188.75c-3.5-8.25.25-12.25.25-12.25s3.75-4.75 14.25-4.75l68.5-.5c6.5 1 11 4.5 11 4.5s4 2.75 6 8c11.25 28 25.75 53.5 25.75 53.5 25 51.5 42 60.25 51.75 55 0 0 12.75-7.75 10-70-1-22.5-7.25-32.75-7.25-32.75-5.75-7.75-16.5-10-21.25-10.75-3.75-.5 2.5-9.5 10.75-13.5 12.25-6 34-6.25 59.75-6 20.25.25 26 1.5 33.75 3.25 23.75 5.75 15.75 27.75 15.75 80.75 0 17-3.25 40.75 9 48.5 5.25 3.5 18.25.5 50.25-54 0 0 15-26 26.75-56.25 2-5.5 6.25-7.75 6.25-7.75s4-2.25 9.5-1.5l72-.5c21.75-2.75 25.25 7.25 25.25 7.25z"/></svg><svg viewBox="0 0 384 448" id="whatsapp" xmlns="http://www.w3.org/2000/svg"><path d="M246.25 243.5c4.25 0 45 21.25 46.75 24.25.5 1.25.5 2.75.5 3.75 0 6.25-2 13.25-4.25 19-5.75 14-29 23-43.25 23-12 0-36.75-10.5-47.5-15.5-35.75-16.25-58-44-79.5-75.75-9.5-14-18-31.25-17.75-48.5v-2c.5-16.5 6.5-28.25 18.5-39.5 3.75-3.5 7.75-5.5 13-5.5 3 0 6 .75 9.25.75 6.75 0 8 2 10.5 8.5 1.75 4.25 14.5 38.25 14.5 40.75 0 9.5-17.25 20.25-17.25 26 0 1.25.5 2.5 1.25 3.75 5.5 11.75 16 25.25 25.5 34.25 11.5 11 23.75 18.25 37.75 25.25 1.75 1 3.5 1.75 5.5 1.75 7.5 0 20-24.25 26.5-24.25zM195.5 376c86.5 0 157-70.5 157-157S282 62 195.5 62s-157 70.5-157 157c0 33 10.5 65.25 30 92l-19.75 58.25 60.5-19.25c25.5 16.75 55.75 26 86.25 26zm0-345.5C299.5 30.5 384 115 384 219s-84.5 188.5-188.5 188.5c-31.75 0-63.25-8-91.25-23.5L0 417.5l34-101.25C16.25 287 7 253.25 7 219 7 115 91.5 30.5 195.5 30.5z"/></svg></defs></svg>