<?xml version="1.0" encoding="utf-8"?><svg xmlns="http://www.w3.org/2000/svg" xmlns:xlink="http://www.w3.org/1999/xlink"><symbol viewBox="0 0 442 448" id="factory" xmlns="http://www.w3.org/2000/svg"><path stroke-width="8.296" d="M25.58 268.048c0-28.255 22.905-51.16 51.16-51.16h180.741v194.371H25.58v-143.21z"/><path stroke-width="8.296" d="M164.445 303.209h169.481c28.256 0 51.16 22.905 51.16 51.16v75.655H164.444V303.209z"/><path stroke-width="8.296" d="M51.852 288.198H73.58v63.013H51.852v-63.013zM93.135 288.198h21.728v63.013H93.135v-63.013z"/><path stroke-width="8.296" d="M194.47 367.013h63.013v63.013H194.47v-63.013zM292.05 367.013h63.013v63.013H292.05v-63.013z"/><path stroke-width="8.296" d="M201.739 19.274a1.382 1.382 0 0 1 1.38-1.299h41.357c.741 0 1.35.583 1.382 1.323l7.625 176.593a1.382 1.382 0 0 1-1.382 1.442h-59.658a1.383 1.383 0 0 1-1.38-1.466l10.676-176.593zM286.184 107.769a1.382 1.382 0 0 1 1.38-1.299h41.357c.741 0 1.35.584 1.382 1.323l7.625 176.593a1.382 1.382 0 0 1-1.382 1.442h-59.658a1.383 1.383 0 0 1-1.38-1.466l10.676-176.593z"/><path stroke-width="8.296" d="M197.729 102.321c0-.764.619-1.383 1.383-1.383h47.012c.764 0 1.382.619 1.382 1.383v16.593c0 .764-.619 1.383-1.382 1.383h-47.012a1.383 1.383 0 0 1-1.383-1.383v-16.593zM282.173 190.815c0-.764.62-1.382 1.382-1.382h47.012c.764 0 1.382.619 1.382 1.382v16.593c0 .764-.619 1.383-1.382 1.383h-47.012a1.383 1.383 0 0 1-1.382-1.383v-16.593zM200.494 63.605c0-.764.619-1.382 1.383-1.382h44.247c.764 0 1.382.619 1.382 1.382v16.593c0 .764-.619 1.382-1.382 1.382h-44.247a1.383 1.383 0 0 1-1.383-1.382V63.605zM284.938 152.099c0-.764.62-1.383 1.382-1.383h44.247c.764 0 1.382.619 1.382 1.383v16.593c0 .764-.619 1.383-1.382 1.383H286.32a1.383 1.383 0 0 1-1.382-1.383v-16.593z"/></symbol><symbol viewBox="0 0 80 81" id="services" xmlns="http://www.w3.org/2000/svg"><rect x="24.75" y="9.584" width="9.5" height="9.5" rx="4.75" stroke-width="1.5"/><mask id="ba"><rect x="6" y="17.834" width="47" height="51" rx="1"/></mask><rect x="6" y="17.834" width="47" height="51" rx="1" stroke-width="3" mask="url(#ba)"/><path stroke-width="1.5" d="M12.75 18.584h33.5v43.5h-33.5z"/><rect x="17.75" y="14.584" width="23.5" height="6.5" rx="2.25" stroke-width="1.5"/><rect x="45.75" y="72.584" width="26.5" height="3.5" rx="1.75" stroke-width="1.5"/><path d="M47.75 69.834c0-6.214 5.037-11.25 11.25-11.25s11.25 5.036 11.25 11.25v.25h-22.5v-.25Z" stroke-width="1.5"/><path d="M56.878 56.084a2.251 2.251 0 0 1 4.244 0h-4.244Z" stroke-width="1.5"/><path d="m17 31.834 2.5 2.5 3.5-4.5M29 32.834h13M29 40.834h13M29 48.834h13M17 39.834l2.5 2.5 3.5-4.5M17 48.834l2.5 2.5 3.5-4.5" stroke-width="1.5"/></symbol><symbol viewBox="0 0 448 448" id="telegram" xmlns="http://www.w3.org/2000/svg"><path d="M385.747 69.384 54.787 197.008c-22.587 9.072-22.456 21.672-4.144 27.291l84.971 26.507 196.597-124.04c9.296-5.656 17.789-2.613 10.808 3.584L183.736 274.121l-5.861 87.584c8.587 0 12.376-3.939 17.192-8.587l41.272-40.133 85.848 63.411c15.829 8.717 27.197 4.237 31.136-14.653l56.355-265.589c5.768-23.128-8.829-33.6-23.931-26.768z"/></symbol><symbol viewBox="0 0 768 768" id="viber" xmlns="http://www.w3.org/2000/svg"><path d="M364.736.064c-61.6.832-194.144 10.944-268.288 78.88-55.04 54.72-74.272 135.392-76.512 235.296-1.92 99.52-4.16 286.4 176 337.312v77.44s-1.216 31.04 19.264 37.44c25.28 8 39.68-15.968 63.68-41.568l44.8-50.56c123.2 10.24 217.6-13.408 228.48-16.928 24.96-8 165.792-25.952 188.832-212.864 23.68-192.992-11.52-314.592-74.88-369.632l-.32-.064c-19.2-17.6-96-73.6-267.84-74.24 0 0-12.672-.8-33.216-.512zm2.144 54.304c17.44-.096 28.16.64 28.16.64 145.28.32 214.752 44.16 231.072 58.88 53.44 45.728 80.896 155.392 60.8 316.544-19.2 156.16-133.44 166.08-154.56 172.8-8.96 2.88-92.16 23.36-196.864 16.64 0 0-78.048 94.112-102.368 118.432-3.84 4.16-8.32 5.44-11.2 4.8-4.16-.96-5.44-6.08-5.12-13.12l.64-128.608C64.768 559.136 73.728 399.712 75.328 316.512c1.92-83.2 17.6-151.424 64-197.504 62.624-56.64 175.2-64.32 227.552-64.64zm11.52 83.2h-.032c-5.284 0-9.568 4.284-9.568 9.568a9.6 9.6 0 0 0 9.6 9.6c1.023-.021 2.228-.033 3.437-.033 48.825 0 93.114 19.419 125.566 50.954l-.043-.041c34.88 33.92 51.872 79.36 52.512 138.88a9.6 9.6 0 0 0 9.6 9.6v-.288a9.6 9.6 0 0 0 9.6-9.6c.118-2.61.185-5.67.185-8.746 0-55.823-22.157-106.471-58.158-143.628l.053.054c-38.08-37.12-86.144-56.32-142.752-56.32zm-126.528 22.08a29.727 29.727 0 0 0-4.311-.306 30.425 30.425 0 0 0-15.511 4.223l.143-.078h-.384c-13.12 7.68-25.216 17.28-36.736 30.08-8.64 10.24-13.472 20.448-14.752 30.368a38.452 38.452 0 0 0-.328 5.093c0 4.367.706 8.57 2.008 12.5l-.08-.281.64.32c10.984 31.934 23.959 59.415 39.503 85.17l-1.103-1.97c21.489 38.604 46.118 71.911 74.434 101.678l-.195-.206.96 1.28 1.28.96 1.92 1.92c29.669 28.187 63.065 52.916 99.253 73.265l2.507 1.296c42.24 23.04 67.904 33.92 83.264 38.4v.32c4.48 1.28 8.576 1.92 12.736 1.92 13.676-1.027 25.889-6.58 35.312-15.147l-.048.043c12.48-11.2 22.4-23.616 29.76-36.736v-.32c7.36-13.76 4.8-26.912-5.76-35.872-20.269-17.808-42.777-34.099-66.748-48.166l-2.052-1.113c-16.32-8.96-32.96-3.52-39.68 5.44l-14.4 18.208c-7.36 8.96-20.8 7.68-20.8 7.68l-.384.32c-99.84-25.6-126.4-126.688-126.4-126.688s-1.28-13.76 8-20.8l17.92-14.4c8.64-7.04 14.72-23.68 5.44-40-15.155-26.025-31.447-48.534-49.696-69.282l.416.482c-3.979-4.906-9.572-8.366-15.96-9.574l-.168-.026zm143.136 28.48c-5.288.018-9.568 4.309-9.568 9.6a9.6 9.6 0 0 0 9.6 9.6h.034-.001c33.318.596 63.259 14.573 84.769 36.769l.031.031c17.999 19.799 29.02 46.223 29.02 75.222 0 2.469-.08 4.92-.237 7.349l.017-.331c.018 5.288 4.309 9.568 9.6 9.568l.32.384a9.6 9.6 0 0 0 9.6-9.6v-.034.002c.96-38.08-10.88-70.08-34.24-95.68s-56-40-97.6-42.88a9.299 9.299 0 0 0-1.375.003l.031-.002zm15.68 51.808a8.471 8.471 0 0 0-.288-.005c-5.402 0-9.78 4.379-9.78 9.78a9.78 9.78 0 0 0 9.478 9.775h.015c31.68 1.6 47.04 17.6 48.96 50.56.178 5.162 4.406 9.28 9.595 9.28h.325c5.172-.166 9.302-4.398 9.302-9.596a10.1 10.1 0 0 0-.023-.675l.001.03c-2.24-42.88-25.6-66.912-67.2-69.152a11.114 11.114 0 0 0-.394 0h.01z"/></symbol><symbol viewBox="0 0 490 448" id="vk-icon" xmlns="http://www.w3.org/2000/svg"><path d="M479.25 130c3.75 10.25-8 34.25-37.5 73.5C393.25 268 388 262 428 299.25c38.5 35.75 46.5 53 47.75 55.25 0 0 16 28-17.75 28.25l-64 1c-13.75 2.75-32-9.75-32-9.75-24-16.5-46.5-59.25-64-53.75 0 0-18 5.75-17.5 44.25.25 8.25-3.75 12.75-3.75 12.75s-4.5 4.75-13.25 5.5h-28.75c-63.25 4-119-54.25-119-54.25s-61-63-114.5-188.75c-3.5-8.25.25-12.25.25-12.25s3.75-4.75 14.25-4.75l68.5-.5c6.5 1 11 4.5 11 4.5s4 2.75 6 8c11.25 28 25.75 53.5 25.75 53.5 25 51.5 42 60.25 51.75 55 0 0 12.75-7.75 10-70-1-22.5-7.25-32.75-7.25-32.75-5.75-7.75-16.5-10-21.25-10.75-3.75-.5 2.5-9.5 10.75-13.5 12.25-6 34-6.25 59.75-6 20.25.25 26 1.5 33.75 3.25 23.75 5.75 15.75 27.75 15.75 80.75 0 17-3.25 40.75 9 48.5 5.25 3.5 18.25.5 50.25-54 0 0 15-26 26.75-56.25 2-5.5 6.25-7.75 6.25-7.75s4-2.25 9.5-1.5l72-.5c21.75-2.75 25.25 7.25 25.25 7.25z"/></symbol><symbol viewBox="0 0 384 448" id="whatsapp" xmlns="http://www.w3.org/2000/svg"><path d="M246.25 243.5c4.25 0 45 21.25 46.75 24.25.5 1.25.5 2.75.5 3.75 0 6.25-2 13.25-4.25 19-5.75 14-29 23-43.25 23-12 0-36.75-10.5-47.5-15.5-35.75-16.25-58-44-79.5-75.75-9.5-14-18-31.25-17.75-48.5v-2c.5-16.5 6.5-28.25 18.5-39.5 3.75-3.5 7.75-5.5 13-5.5 3 0 6 .75 9.25.75 6.75 0 8 2 10.5 8.5 1.75 4.25 14.5 38.25 14.5 40.75 0 9.5-17.25 20.25-17.25 26 0 1.25.5 2.5 1.25 3.75 5.5 11.75 16 25.25 25.5 34.25 11.5 11 23.75 18.25 37.75 25.25 1.75 1 3.5 1.75 5.5 1.75 7.5 0 20-24.25 26.5-24.25zM195.5 376c86.5 0 157-70.5 157-157S282 62 195.5 62s-157 70.5-157 157c0 33 10.5 65.25 30 92l-19.75 58.25 60.5-19.25c25.5 16.75 55.75 26 86.25 26zm0-345.5C299.5 30.5 384 115 384 219s-84.5 188.5-188.5 188.5c-31.75 0-63.25-8-91.25-23.5L0 417.5l34-101.25C16.25 287 7 253.25 7 219 7 115 91.5 30.5 195.5 30.5z"/></symbol><symbol viewBox="0 0 384 448" id="youtube" xmlns="http://www.w3.org/2000/svg"><path d="M242.75 311v52.75c0 11.25-3.25 16.75-9.75 16.75-3.75 0-7.5-1.75-11.25-5.5v-75.25c3.75-3.75 7.5-5.5 11.25-5.5 6.5 0 9.75 5.75 9.75 16.75zm84.5.25v11.5h-22.5v-11.5c0-11.25 3.75-17 11.25-17s11.25 5.75 11.25 17zm-241.5-54.5h26.75v-23.5h-78v23.5h26.25V399h25V256.75zm72 142.25H180V275.5h-22.25V370c-5 7-9.75 10.5-14.25 10.5-3 0-4.75-1.75-5.25-5.25-.25-.75-.25-3.5-.25-8.75v-91h-22.25v97.75c0 8.75.75 14.5 2 18.25 2 6.25 7.25 9.25 14.5 9.25 8 0 16.5-5 25.5-15.25V399zM265 362v-49.25c0-11.5-.5-19.75-2.25-24.75-2.75-9.25-9-14-17.75-14-8.25 0-16 4.5-23.25 13.5v-54.25H199.5V399h22.25v-12c7.5 9.25 15.25 13.75 23.25 13.75 8.75 0 15-4.75 17.75-13.75 1.75-5.25 2.25-13.5 2.25-25zm84.5-2.5v-3.25h-22.75c0 9-.25 14-.5 15.25-1.25 6-4.5 9-10 9-7.75 0-11.5-5.75-11.5-17.25V341.5h44.75v-25.75c0-13.25-2.25-22.75-6.75-29-6.5-8.5-15.25-12.75-26.5-12.75-11.5 0-20.25 4.25-26.75 12.75-4.75 6.25-7 15.75-7 29V359c0 13.25 2.5 23 7.25 29 6.5 8.5 15.25 12.75 27 12.75s21-4.5 27-13.25c2.75-4 4.75-8.5 5.25-13.5.5-2.25.5-7.25.5-14.5zm-152-228.25v-52.5c0-11.5-3.25-17.25-10.75-17.25-7.25 0-10.75 5.75-10.75 17.25v52.5c0 11.5 3.5 17.5 10.75 17.5 7.5 0 10.75-6 10.75-17.5zM377.25 319c0 28.75-.25 59.5-6.5 87.5-4.75 19.75-20.75 34.25-40 36.25-46 5.25-92.5 5.25-138.75 5.25s-92.75 0-138.75-5.25c-19.25-2-35.5-16.5-40-36.25-6.5-28-6.5-58.75-6.5-87.5 0-29 .25-59.5 6.5-87.5C18 211.75 34 197.25 53.5 195c45.75-5 92.25-5 138.5-5s92.75 0 138.75 5c19.25 2.25 35.5 16.75 40 36.5 6.5 28 6.5 58.5 6.5 87.5zM127.75 0h25.5L123 99.75v67.75H98V99.75c-2.25-12.25-7.25-29.75-15.25-53-5.5-15.5-11-31.25-16.25-46.75H93l17.75 65.75zm92.5 83.25V127c0 13.25-2.25 23.25-7 29.5-6.25 8.5-15 12.75-26.5 12.75-11.25 0-20-4.25-26.25-12.75-4.75-6.5-7-16.25-7-29.5V83.25c0-13.25 2.25-23 7-29.25 6.25-8.5 15-12.75 26.25-12.75 11.5 0 20.25 4.25 26.5 12.75 4.75 6.25 7 16 7 29.25zM304 42.75V167.5h-22.75v-13.75c-9 10.5-17.5 15.5-25.75 15.5-7.25 0-12.5-3-14.75-9.25-1.25-3.75-2-9.75-2-18.75v-98.5h22.75v91.75c0 5.25 0 8.25.25 8.75.5 3.5 2.25 5.5 5.25 5.5 4.5 0 9.25-3.5 14.25-10.75V42.75H304z"/></symbol></svg>