<svg version="1.1"
	xmlns="http://www.w3.org/2000/svg" width="442" height="448" viewBox="0 0 442 448">
	<g id="icomoon-ignore">
	</g>
	<path fill="#d1c6dd" stroke="#473667" stroke-linejoin="miter" stroke-linecap="butt" stroke-miterlimit="4" stroke-width="8.2963" d="M25.58 268.048c0-28.255 22.905-51.16 51.16-51.16h180.741v194.371h-231.901v-143.21z"></path>
	<path fill="#d1c6dd" stroke="#473667" stroke-linejoin="miter" stroke-linecap="butt" stroke-miterlimit="4" stroke-width="8.2963" d="M164.445 303.209h169.481c28.256 0 51.16 22.905 51.16 51.16v75.655h-220.642v-126.815z"></path>
	<path fill="#efecf6" stroke="#473667" stroke-linejoin="miter" stroke-linecap="butt" stroke-miterlimit="4" stroke-width="8.2963" d="M51.852 288.198h21.728v63.013h-21.728v-63.013z"></path>
	<path fill="#efecf6" stroke="#473667" stroke-linejoin="miter" stroke-linecap="butt" stroke-miterlimit="4" stroke-width="8.2963" d="M93.135 288.198h21.728v63.013h-21.728v-63.013z"></path>
	<path fill="#615081" stroke="#473667" stroke-linejoin="miter" stroke-linecap="butt" stroke-miterlimit="4" stroke-width="8.2963" d="M194.47 367.013h63.013v63.013h-63.013v-63.013z"></path>
	<path fill="#615081" stroke="#473667" stroke-linejoin="miter" stroke-linecap="butt" stroke-miterlimit="4" stroke-width="8.2963" d="M292.050 367.013h63.013v63.013h-63.013v-63.013z"></path>
	<path fill="#d1c6dd" stroke="#473667" stroke-linejoin="miter" stroke-linecap="butt" stroke-miterlimit="4" stroke-width="8.2963" d="M201.739 19.274c0.044-0.73 0.649-1.299 1.38-1.299h41.357c0.741 0 1.35 0.583 1.382 1.323l7.625 176.593c0.034 0.787-0.595 1.442-1.382 1.442h-59.658c-0.796 0-1.428-0.672-1.38-1.466l10.676-176.593z"></path>
	<path fill="#d1c6dd" stroke="#473667" stroke-linejoin="miter" stroke-linecap="butt" stroke-miterlimit="4" stroke-width="8.2963" d="M286.184 107.769c0.044-0.73 0.649-1.299 1.38-1.299h41.357c0.741 0 1.35 0.584 1.382 1.323l7.625 176.593c0.034 0.787-0.595 1.442-1.382 1.442h-59.658c-0.796 0-1.428-0.672-1.38-1.466l10.676-176.593z"></path>
	<path fill="#615081" stroke="#473667" stroke-linejoin="miter" stroke-linecap="butt" stroke-miterlimit="4" stroke-width="8.2963" d="M197.729 102.321c0-0.764 0.619-1.383 1.383-1.383h47.012c0.764 0 1.382 0.619 1.382 1.383v16.593c0 0.764-0.619 1.383-1.382 1.383h-47.012c-0.764 0-1.383-0.619-1.383-1.383v-16.593z"></path>
	<path fill="#615081" stroke="#473667" stroke-linejoin="miter" stroke-linecap="butt" stroke-miterlimit="4" stroke-width="8.2963" d="M282.173 190.815c0-0.764 0.62-1.382 1.382-1.382h47.012c0.764 0 1.382 0.619 1.382 1.382v16.593c0 0.764-0.619 1.383-1.382 1.383h-47.012c-0.763 0-1.382-0.619-1.382-1.383v-16.593z"></path>
	<path fill="#615081" stroke="#473667" stroke-linejoin="miter" stroke-linecap="butt" stroke-miterlimit="4" stroke-width="8.2963" d="M200.494 63.605c0-0.764 0.619-1.382 1.383-1.382h44.247c0.764 0 1.382 0.619 1.382 1.382v16.593c0 0.764-0.619 1.382-1.382 1.382h-44.247c-0.764 0-1.383-0.619-1.383-1.382v-16.593z"></path>
	<path fill="#615081" stroke="#473667" stroke-linejoin="miter" stroke-linecap="butt" stroke-miterlimit="4" stroke-width="8.2963" d="M284.938 152.099c0-0.764 0.62-1.383 1.382-1.383h44.247c0.764 0 1.382 0.619 1.382 1.383v16.593c0 0.764-0.619 1.383-1.382 1.383h-44.247c-0.763 0-1.382-0.619-1.382-1.383v-16.593z"></path>
</svg>
