<svg version="1.1"
	xmlns="http://www.w3.org/2000/svg" width="768" height="768" viewBox="0 0 768 768">
	<g id="icomoon-ignore">
	</g>
	<path d="M364.736 0.064c-61.6 0.832-194.144 10.944-268.288 78.88-55.040 54.72-74.272 135.392-76.512 235.296-1.92 99.52-4.16 286.4 176 337.312v77.44c0 0-1.216 31.040 19.264 37.44 25.28 8 39.68-15.968 63.68-41.568l44.8-50.56c123.2 10.24 217.6-13.408 228.48-16.928 24.96-8 165.792-25.952 188.832-212.864 23.68-192.992-11.52-314.592-74.88-369.632l-0.32-0.064c-19.2-17.6-96-73.6-267.84-74.24 0 0-12.672-0.8-33.216-0.512zM366.88 54.368c17.44-0.096 28.16 0.64 28.16 0.64 145.28 0.32 214.752 44.16 231.072 58.88 53.44 45.728 80.896 155.392 60.8 316.544-19.2 156.16-133.44 166.080-154.56 172.8-8.96 2.88-92.16 23.36-196.864 16.64 0 0-78.048 94.112-102.368 118.432-3.84 4.16-8.32 5.44-11.2 4.8-4.16-0.96-5.44-6.080-5.12-13.12l0.64-128.608c-152.672-42.24-143.712-201.664-142.112-284.864 1.92-83.2 17.6-151.424 64-197.504 62.624-56.64 175.2-64.32 227.552-64.64zM378.4 137.568c-0.010 0-0.021 0-0.032 0-5.284 0-9.568 4.284-9.568 9.568 0 0 0 0 0 0v0c0 5.302 4.298 9.6 9.6 9.6v0c1.023-0.021 2.228-0.033 3.437-0.033 48.825 0 93.114 19.419 125.566 50.954l-0.043-0.041c34.88 33.92 51.872 79.36 52.512 138.88 0 5.302 4.298 9.6 9.6 9.6v0-0.288c5.302 0 9.6-4.298 9.6-9.6v0c0.118-2.61 0.185-5.67 0.185-8.746 0-55.823-22.157-106.471-58.158-143.628l0.053 0.054c-38.080-37.12-86.144-56.32-142.752-56.32zM251.872 159.648c-1.295-0.194-2.791-0.306-4.311-0.306-5.662 0-10.964 1.54-15.511 4.223l0.143-0.078h-0.384c-13.12 7.68-25.216 17.28-36.736 30.080-8.64 10.24-13.472 20.448-14.752 30.368-0.209 1.529-0.328 3.297-0.328 5.093 0 4.367 0.706 8.57 2.008 12.5l-0.080-0.281 0.64 0.32c10.984 31.934 23.959 59.415 39.503 85.17l-1.103-1.97c21.489 38.604 46.118 71.911 74.434 101.678l-0.195-0.206 0.96 1.28 1.28 0.96 1.92 1.92c29.669 28.187 63.065 52.916 99.253 73.265l2.507 1.296c42.24 23.040 67.904 33.92 83.264 38.4v0.32c4.48 1.28 8.576 1.92 12.736 1.92 13.676-1.027 25.889-6.58 35.312-15.147l-0.048 0.043c12.48-11.2 22.4-23.616 29.76-36.736v-0.32c7.36-13.76 4.8-26.912-5.76-35.872-20.269-17.808-42.777-34.099-66.748-48.166l-2.052-1.113c-16.32-8.96-32.96-3.52-39.68 5.44l-14.4 18.208c-7.36 8.96-20.8 7.68-20.8 7.68l-0.384 0.32c-99.84-25.6-126.4-126.688-126.4-126.688s-1.28-13.76 8-20.8l17.92-14.4c8.64-7.040 14.72-23.68 5.44-40-15.155-26.025-31.447-48.534-49.696-69.282l0.416 0.482c-3.979-4.906-9.572-8.366-15.96-9.574l-0.168-0.026zM395.008 188.128c-5.288 0.018-9.568 4.309-9.568 9.6 0 5.302 4.298 9.6 9.6 9.6 0.011 0 0.022 0 0.034 0h-0.001c33.318 0.596 63.259 14.573 84.769 36.769l0.031 0.031c17.999 19.799 29.020 46.223 29.020 75.222 0 2.469-0.080 4.92-0.237 7.349l0.017-0.331c0.018 5.288 4.309 9.568 9.6 9.568 0 0 0 0 0 0v0l0.32 0.384c0 0 0 0 0 0 5.302 0 9.6-4.298 9.6-9.6 0-0.011 0-0.022 0-0.034v0.002c0.96-38.080-10.88-70.080-34.24-95.68s-56-40-97.6-42.88c-0.201-0.015-0.436-0.023-0.672-0.023s-0.471 0.008-0.703 0.026l0.031-0.002zM410.688 239.936c-0.086-0.003-0.187-0.005-0.288-0.005-5.402 0-9.78 4.379-9.78 9.78 0 5.3 4.216 9.616 9.478 9.775h0.015c31.68 1.6 47.040 17.6 48.96 50.56 0.178 5.162 4.406 9.28 9.595 9.28 0.001 0 0.004 0 0.005 0h0.32c5.172-0.166 9.302-4.398 9.302-9.596 0-0.226-0.008-0.451-0.023-0.675l0.001 0.030c-2.24-42.88-25.6-66.912-67.2-69.152-0.057-0.001-0.125-0.002-0.192-0.002s-0.135 0.001-0.202 0.002h0.010z"></path>
</svg>